<?xml version="1.0" encoding="utf-8"?>
<!-- Generator: Adobe Illustrator 25.0.0, SVG Export Plug-In . SVG Version: 6.00 Build 0)  -->
<svg version="1.1" id="Capa_1" xmlns="http://www.w3.org/2000/svg" xmlns:xlink="http://www.w3.org/1999/xlink" x="0px" y="0px"
	 viewBox="0 0 128 52.1" style="enable-background:new 0 0 128 52.1;" xml:space="preserve">
<style type="text/css">
	.st0{fill:#FFFFFF;}
	.st1{fill:#F34F29;}
	.st2{fill:none;}
</style>
<path class="st0" d="M76.4,17.8c-2.7,0-4.8,1.3-4.8,4.6c0,2.4,1.3,4.1,4.6,4.1c2.8,0,4.7-1.6,4.7-4.2C80.9,19.3,79.2,17.8,76.4,17.8
	z M70.9,40.6c-0.6,0.8-1.3,1.6-1.3,2.6c0,2,2.5,2.6,6,2.6c2.9,0,6.8-0.2,6.8-2.9c0-1.6-1.9-1.7-4.3-1.8
	C78.2,41.1,70.9,40.6,70.9,40.6z M85.7,17.9c0.9,1.1,1.8,2.7,1.8,5c0,5.5-4.3,8.8-10.6,8.8c-1.6,0-3-0.2-3.9-0.4l-1.6,2.6l4.9,0.3
	C84.9,34.7,90,35,90,41.6c0,5.7-5,9-13.7,9c-9,0-12.4-2.3-12.4-6.2c0-2.2,1-3.4,2.7-5.1c-1.6-0.7-2.2-1.9-2.2-3.3
	c0-1.1,0.5-2.1,1.4-3s1.9-1.9,3.1-3c-2.4-1.2-4.3-3.8-4.3-7.5c0-5.7,3.8-9.6,11.4-9.6c2.1,0,3.4,0.2,4.6,0.5h9.7v4.2
	C90.2,17.6,85.7,17.9,85.7,17.9z M99,8.9c-2.8,0-4.5-1.6-4.5-4.5C94.5,1.6,96.1,0,99,0s4.5,1.5,4.5,4.4C103.5,7.2,101.9,8.9,99,8.9z
	 M92.6,38.8v-3.9l2.5-0.3c0.7-0.1,0.8-0.2,0.8-1V18.9c0-0.5-0.1-0.9-0.6-1L92.6,17l0.5-4h10.3v20.6c0,0.8,0,0.9,0.8,1l2.5,0.3v3.9
	L92.6,38.8L92.6,38.8z M126.4,36.9c-2.1,1-5.3,2-8.1,2c-5.9,0-8.2-2.4-8.2-8v-13c0-0.3,0-0.5-0.4-0.5h-3.5V13
	c4.4-0.5,6.1-2.7,6.7-8.1h4.7V12c0,0.3,0,0.5,0.4,0.5h7v5h-7.4v11.9c0,2.9,0.7,4.1,3.4,4.1c1.4,0,2.8-0.3,4-0.8L126.4,36.9z"/>
<path class="st1" d="M52.7,23.8L30,1.1c-1.3-1.3-3.4-1.3-4.7,0l-4.7,4.7l6,6c1.4-0.5,3-0.2,4.1,1c1.1,1.1,1.4,2.7,0.9,4.1l5.8,5.8
	c1.4-0.5,3-0.2,4.1,0.9c1.6,1.6,1.6,4.1,0,5.6c-1.6,1.6-4.1,1.6-5.6,0c-1.2-1.2-1.5-2.9-0.9-4.3l-5.4-5.4v14.2
	c0.4,0.2,0.7,0.4,1.1,0.8c1.6,1.6,1.6,4.1,0,5.6c-1.6,1.6-4.1,1.6-5.6,0c-1.6-1.6-1.6-4.1,0-5.6c0.4-0.4,0.8-0.7,1.3-0.9V19.2
	c-0.5-0.2-0.9-0.5-1.3-0.9c-1.2-1.2-1.5-2.9-0.9-4.4l-6-5.8L2.6,23.7c-1.3,1.3-1.3,3.4,0,4.7l22.7,22.7c1.3,1.3,3.4,1.3,4.7,0
	l22.6-22.6C54,27.2,54,25.1,52.7,23.8z"/>
<path class="st2" d="M1.6,0h124.8v52.1H1.6V0z"/>
</svg>
