<?xml version="1.0" encoding="utf-8"?>
<!-- Generator: Adobe Illustrator 25.0.0, SVG Export Plug-In . SVG Version: 6.00 Build 0)  -->
<svg version="1.1" id="Capa_1" xmlns="http://www.w3.org/2000/svg" xmlns:xlink="http://www.w3.org/1999/xlink" x="0px" y="0px"
	 viewBox="0 0 320 60" style="enable-background:new 0 0 320 60;" xml:space="preserve">
<style type="text/css">
	.st0{fill:#FFFFFF;}
	.st1{fill:#367FAF;}
	.st2{fill:#FFFFFF;stroke:#FFFFFF;stroke-width:4.108;}
	.st3{fill:#417BA2;}
	.st4{fill:none;stroke:#FFFFFF;stroke-width:1.369;stroke-linecap:round;stroke-linejoin:round;}
	.st5{fill:none;stroke:#FFFFFF;stroke-width:1.369;stroke-linecap:round;stroke-linejoin:bevel;}
	.st6{fill:none;stroke:#FFFFFF;stroke-width:1.369;stroke-linejoin:round;}
	.st7{fill:#FFFFFF;stroke:#FFFFFF;stroke-width:0.456;}
	.st8{fill:#FFFFFF;stroke:#FFFFFF;stroke-width:0.228;}
</style>
<path class="st0" d="M86.1,30.2H74.5V18.5h12.2c4.5,0,6.7,2,6.7,5.9C93.4,28.3,91,30.2,86.1,30.2 M94.4,18.4
	c-1.6-1.4-3.8-2.1-6.7-2.1l-16.6,0.1v27.9h3.3l0-11.9h12.4c3.1,0,5.5-0.7,7.3-2.1s2.7-3.4,2.7-5.9S96,19.8,94.4,18.4L94.4,18.4z
	 M116.1,38.4c-0.3,0.9-0.9,1.7-1.6,2.4c-1.5,1.5-3.8,2.2-6.9,2.2c-2.8,0-4.9-0.7-6.4-2.1S99,37.5,99,35.1c0-1.2,0.2-2.3,0.6-3.3
	s1-1.8,1.7-2.4c1.5-1.4,3.7-2.1,6.4-2.1c6,0,9,2.6,9,7.8C116.6,36.4,116.4,37.5,116.1,38.4 M116.7,28.1c-2-1.9-5.1-2.8-9.1-2.8
	c-3.8,0-6.7,1-8.8,2.9c-1.9,1.7-2.8,4-2.8,7c0,2.9,1,5.2,2.9,7c1.1,1,2.3,1.7,3.7,2.1s3.1,0.6,5,0.6c4,0,7-0.9,9.1-2.8
	c1.9-1.7,2.8-4,2.8-7C119.5,32.1,118.6,29.8,116.7,28.1L116.7,28.1z M142,39.2c0,3.8-3.4,5.6-10.1,5.6c-2.1,0-3.8-0.1-5.2-0.4
	s-2.6-0.7-3.4-1.3c-0.7-0.5-1.2-1.1-1.6-1.8c-0.4-0.7-0.7-1.7-0.8-2.8l3.1,0c0,1.5,0.5,2.6,1.6,3.3c1.2,0.8,3.3,1.3,6.3,1.3
	c4.7,0,7.1-1.2,7.1-3.5c0-1.4-0.8-2.3-2.4-2.8c-0.3-0.1-2.2-0.4-5.7-0.8s-5.7-0.8-6.5-1.2c-1.9-0.7-2.8-2.1-2.8-4
	c0-1.9,0.8-3.3,2.5-4.2c0.8-0.4,1.8-0.7,3.1-0.9c1.2-0.2,2.7-0.3,4.3-0.3c6.5,0,9.7,2,9.7,6.1h-3c0-2.9-2.3-4.3-6.8-4.3
	c-2.3,0-4,0.3-5.2,0.9s-1.7,1.5-1.7,2.7c0,1.1,0.8,1.9,2.3,2.4c0.9,0.3,3,0.6,6.2,0.9c2.9,0.3,4.9,0.6,6,1.1
	C141,35.9,142.1,37.3,142,39.2L142,39.2z M154.3,44.3l-1.3,0.2l-0.8,0.1c-2,0-3.5-0.3-4.4-0.9s-1.4-1.6-1.4-3.1V27.8h-3.7v-1.9h3.7
	l0-6h2.9v6h5v1.9l-5,0v12.4c0,0.9,0.2,1.6,0.7,1.9s1.4,0.5,2.6,0.5c0.2,0,0.4,0,0.6,0c0.3-0.1,0.7-0.1,1-0.2L154.3,44.3L154.3,44.3z
	 M174.1,40.1c-0.8,0.6-1.7,1.1-2.7,1.5S169.3,42,168,42c-6,0-9-2.5-9-7.4c0-2.3,0.8-4.1,2.3-5.4s3.7-1.9,6.5-1.9
	c2.8,0,4.9,0.7,6.4,2s2.2,3.1,2.2,5.3C176.3,36.9,175.6,38.8,174.1,40.1 M179.2,25.9h-2.9l0,3.1c-1.3-1.3-2.2-2.1-2.7-2.4
	c-1.6-0.9-3.7-1.3-6.2-1.3c-3.7,0-6.6,0.9-8.5,2.5c-1.9,1.6-2.8,3.8-2.8,6.8c0,1.5,0.2,2.8,0.7,3.9s1.2,2.1,2.1,2.9
	c2,1.6,4.7,2.5,8.3,2.5c4.3,0,7.4-1.2,9.2-3.5v3.3c0,2.1-0.7,3.7-2,4.8s-3.5,1.7-6.5,1.7c-2.8,0-4.8-0.4-6-1.2
	c-0.9-0.6-1.5-1.6-1.9-3.1h-2.9c0.3,2.1,1.2,3.5,2.6,4.5c1.6,1.1,4.4,1.6,8.3,1.6c7.5,0,11.2-2.8,11.2-8.3L179.2,25.9L179.2,25.9z
	 M194.6,27.8c-0.9-0.1-1.7-0.2-2.4-0.2c-4.7,0-7,2.6-7,7.7v9h-2.8l0-18.3l2.9,0v3.3h0.1c0.5-1.3,1.2-2.3,2.3-2.9
	c1.1-0.6,2.8-1,5.1-1h1.9L194.6,27.8L194.6,27.8z M197.3,33.9c0.4-2.1,1.2-3.7,2.4-4.8c0.8-0.7,1.8-1.2,2.8-1.5s2.2-0.5,3.5-0.5
	c2.5,0,4.6,0.7,6.2,2.1s2.4,3,2.4,4.7L197.3,33.9 M214.9,28.3c-1-1-2.2-1.7-3.7-2.2s-3.2-0.7-5.2-0.7c-3.7,0-6.6,0.9-8.6,2.6
	s-3.1,4.1-3.1,7s1,5.3,2.9,7c2.1,1.9,5.1,2.9,9,2.9c1.5,0,3-0.2,4.3-0.5s2.5-0.8,3.4-1.5c1.7-1.2,2.8-2.8,3.3-4.6h-3.1
	c-1.1,3.1-3.7,4.7-7.9,4.7c-3,0-5.3-0.8-6.9-2.3c-1.4-1.3-2.1-3-2.1-5.1h20.4C217.6,32.5,216.7,30.1,214.9,28.3L214.9,28.3z"/>
<path class="st1" d="M247.8,36.8c0,5.4-4.4,8.2-13.2,8.2c-5.3,0-9.1-0.9-11.5-2.8c-2-1.5-3-3.9-3-7h3.5c0,5.1,3.6,7.6,10.9,7.6
	c3.5,0,6-0.5,7.6-1.6c1.3-0.9,2-2.4,2-4.3c0-1.9-0.9-3.3-2.7-4.1c-1-0.4-3.5-1-7.5-1.6c-5-0.8-8.2-1.5-9.7-2.3
	c-2.1-1.1-3.2-3-3.2-5.7c0-2.5,0.9-4.4,2.7-5.6c2-1.3,5.3-2,10.1-2c8.6,0,12.9,2.9,12.9,8.6h-3.6c0-4.3-3.2-6.4-9.6-6.4
	c-3.2,0-5.5,0.4-7,1.3c-1.4,0.9-2.1,2.3-2.1,4c0,1.9,0.9,3.2,2.7,3.9c1,0.4,3.8,1,8.5,1.8c4.4,0.7,7.4,1.4,8.9,2.3
	C246.8,32.3,247.8,34.1,247.8,36.8L247.8,36.8z M276.5,39.6c-1.3,1.1-2.8,1.8-4.5,2.4s-3.5,0.8-5.6,0.8c-4.2,0-7.6-1.1-10.2-3.4
	s-3.9-5.3-3.9-9.1c0-3.9,1.3-7,3.9-9.2s6-3.3,10.2-3.3c4.3,0,7.7,1.1,10.1,3.4c1.3,1.1,2.3,2.4,2.9,3.9s0.9,3.2,0.9,5.1
	C280.4,34.2,279.1,37.3,276.5,39.6 M278.4,41.4c1.8-1.3,3.2-2.9,4.1-4.7s1.3-4,1.3-6.4c0-4.3-1.4-7.8-4.3-10.4
	c-1.5-1.4-3.4-2.5-5.6-3.2s-4.7-1.1-7.5-1.1c-5.4,0-9.7,1.3-12.8,4s-4.6,6.2-4.6,10.7c0,4.4,1.6,7.9,4.7,10.6c3.1,2.7,7.4,4,12.8,4
	c2.1,0,4-0.1,5.5-0.4s2.9-0.7,4-1.3l5.2,3.6l2.2-2L278.4,41.4L278.4,41.4z M310.2,44.3h-24.1v-28l3.3-0.1v25.7h20.8L310.2,44.3
	L310.2,44.3z"/>
<path class="st2" d="M48.2,39.6c0.3-2.4,0.2-2.7,2.3-2.3l0.5,0c1.6,0.1,3.7-0.2,4.9-0.7c2.7-1,4.2-2.8,1.6-2.3c-6,1-6.4-0.7-6.4-0.7
	c6.3-7.9,8.9-18,6.7-20.4C51.7,6.4,41,9.6,40.8,9.7l-0.1,0c-1.2-0.2-2.5-0.3-4-0.4c-2.7,0-4.7,0.6-6.3,1.6c0,0-19.1-6.7-18.2,8.4
	c0.2,3.2,5.4,24.3,11.7,17.9c2.3-2.3,4.5-4.3,4.5-4.3c1.2,0.6,2.5,0.9,3.8,0.8l0.1-0.1c0,0.3,0,0.6,0,0.9c-1.6,1.5-1.1,1.8-4.4,2.4
	c-3.3,0.6-1.3,1.6-0.1,1.8c1.5,0.3,5,0.8,7.4-2l-0.1,0.3c0.6,0.4,0.6,3.1,0.7,5s0.2,3.7,0.7,4.7s1,3.7,5.2,3
	C45.3,49.1,48,48.2,48.2,39.6"/>
<path class="st3" d="M57.6,34.2c-6,1-6.4-0.7-6.4-0.7c6.3-7.9,8.9-18,6.7-20.4C51.7,6.4,41,9.6,40.8,9.7l-0.1,0
	c-1.2-0.2-2.5-0.3-4-0.4c-2.7,0-4.7,0.6-6.3,1.6c0,0-19.1-6.7-18.2,8.4c0.2,3.2,5.4,24.3,11.7,17.9c2.3-2.3,4.5-4.3,4.5-4.3
	c1.2,0.6,2.5,0.9,3.8,0.8l0.1-0.1c0,0.3,0,0.6,0,0.9c-1.6,1.5-1.1,1.8-4.4,2.4c-3.3,0.6-1.3,1.6-0.1,1.8c1.5,0.3,5,0.8,7.4-2
	l-0.1,0.3c0.6,0.4,1.1,2.8,1,4.9s-0.1,3.6,0.4,4.7s1,3.7,5.2,3c3.5-0.6,5.4-2.3,5.6-5.1c0.2-2,0.6-1.7,0.6-3.4l0.3-0.8
	c0.4-2.7,0.1-3.5,2.2-3.1l0.5,0c1.6,0.1,3.7-0.2,4.9-0.7C58.7,35.5,60.2,33.8,57.6,34.2L57.6,34.2z"/>
<g>
	<g>
		<path class="st4" d="M35.5,35.8c-0.2,5,0,10,0.6,11.2s1.8,3.6,6,2.8c3.5-0.6,4.8-1.9,5.4-4.6c0.4-2,1.2-7.6,1.3-8.8 M30.5,10.8
			c0,0-19.2-6.6-18.2,8.5c0.2,3.2,5.4,24.3,11.7,17.9c2.3-2.3,4.3-4.2,4.3-4.2 M40.8,9.6c-0.7,0.2,10.6-3.5,17.1,3.5
			c2.3,2.5-0.4,12.5-6.7,20.4"/>
		<path class="st5" d="M51.2,33.5c0,0,0.4,1.7,6.4,0.7c2.6-0.5,1,1.3-1.6,2.3c-2.2,0.9-7,1.1-7.1-0.1C48.6,33.4,51.4,34.3,51.2,33.5
			c-0.2-0.7-1.4-1.4-2.2-3c-0.7-1.5-9.8-12.7,2.5-11.1c0.5-0.1-3.2-9.9-14.8-10.1s-11.2,12-11.2,12"/>
	</g>
	<g>
		<path class="st6" d="M32.3,34.6c-1.6,1.5-1.1,1.8-4.4,2.4c-3.3,0.6-1.3,1.6-0.1,1.8c1.5,0.3,5,0.8,7.4-2c0.7-0.9,0-2.2-1-2.6
			C33.7,34,33.1,33.8,32.3,34.6L32.3,34.6z"/>
		<path class="st4" d="M32.2,34.5c-0.2-0.9,0.3-2,0.9-3.2c0.8-1.9,2.7-3.7,1.2-9.7c-1.1-4.4-8.7-0.9-8.7-0.3s0.3,3-0.1,5.9
			c-0.6,3.7,2.8,6.8,6.7,6.5"/>
	</g>
</g>
<g>
	<path class="st7" d="M30.4,21.2c0,0.2,0.4,0.8,1.1,0.8s1.2-0.4,1.2-0.6s-0.4-0.4-1.1-0.5S30.4,21,30.4,21.2z"/>
	<path class="st8" d="M49.3,20.8c0,0.2-0.4,0.8-1.1,0.8s-1.2-0.4-1.2-0.6s0.4-0.4,1.1-0.5S49.2,20.6,49.3,20.8L49.3,20.8z"/>
</g>
<path class="st4" d="M51.5,19.4c0.1,1.6-0.4,2.7-0.5,4.4c-0.1,2.5,1.4,5.3-0.9,8.2"/>
</svg>
