<?xml version="1.0" encoding="utf-8"?>
<!-- Generator: Adobe Illustrator 25.0.0, SVG Export Plug-In . SVG Version: 6.00 Build 0)  -->
<svg version="1.1" id="Languages" xmlns="http://www.w3.org/2000/svg" xmlns:xlink="http://www.w3.org/1999/xlink" x="0px" y="0px"
	 viewBox="0 0 120 60" style="enable-background:new 0 0 120 60;" xml:space="preserve">
<style type="text/css">
	.st0{display:none;}
	.st1{display:inline;}
	.st2{fill-rule:evenodd;clip-rule:evenodd;fill:#00D8FF;}
	.st3{fill:none;stroke:#00D8FF;stroke-width:1.6627;stroke-miterlimit:10;}
	.st4{display:inline;fill-rule:evenodd;clip-rule:evenodd;fill:#00D8FF;}
	.st5{display:inline;fill:#83CD29;}
	.st6{display:inline;fill:#404137;}
	.st7{display:inline;fill:#1677C7;}
	.st8{display:inline;fill:#F7DF1E;}
	.st9{clip-path:url(#SVGID_2_);}
	.st10{fill:url(#SVGID_3_);}
	.st11{clip-path:url(#SVGID_5_);}
	.st12{fill:#777BB3;}
	.st13{clip-path:url(#SVGID_7_);}
	.st14{fill:#FFFFFF;}
	.st15{display:inline;fill:#FFFFFF;}
	.st16{display:inline;fill:#F34F29;}
	.st17{display:inline;fill:none;}
	.st18{fill:#FFC24A;}
	.st19{fill:#FFA712;}
	.st20{fill:#F4BD62;}
	.st21{fill:#FFA50E;}
	.st22{fill:#F6820C;}
	.st23{fill:#FDE068;}
	.st24{fill:#FCCA3F;}
	.st25{fill:#EEAB37;}
	.st26{display:inline;fill:#63666A;}
	.st27{display:inline;fill:#599636;}
	.st28{display:inline;fill:#6CAC48;}
	.st29{display:inline;fill:#C2BFBF;}
	.st30{fill:#47474A;}
	.st31{fill:#C2BFBF;}
	.st32{fill-rule:evenodd;clip-rule:evenodd;fill:#00678C;}
	.st33{display:inline;fill-rule:evenodd;clip-rule:evenodd;fill:#CE8B2C;}
	.st34{display:inline;fill-rule:evenodd;clip-rule:evenodd;fill:#00678C;}
	.st35{fill:#367FAF;}
	.st36{fill:#FFFFFF;stroke:#FFFFFF;stroke-width:4.108;}
	.st37{fill:#417BA2;}
	.st38{fill:none;stroke:#FFFFFF;stroke-width:1.369;stroke-linecap:round;stroke-linejoin:round;}
	.st39{fill:none;stroke:#FFFFFF;stroke-width:1.369;stroke-linecap:round;stroke-linejoin:bevel;}
	.st40{fill:none;stroke:#FFFFFF;stroke-width:1.369;stroke-linejoin:round;}
	.st41{fill:#FFFFFF;stroke:#FFFFFF;stroke-width:0.456;}
	.st42{fill:#FFFFFF;stroke:#FFFFFF;stroke-width:0.228;}
	.st43{display:inline;fill:#E44D26;}
	.st44{display:inline;fill:#1572B6;}
	.st45{display:inline;fill:#CF649A;}
</style>
<g id="React_JS" class="st0">
	<g transform="matrix(.06928 0 0 .06928 7.367398 13.505331)" class="st1">
		<circle class="st2" cx="256.2" cy="237.6" r="54.2"/>
		<g>
			<path class="st3" d="M256.2,127.4c72.7,0,140.3,10.4,191.2,28c61.4,21.1,99.1,53.2,99.1,82.2c0,30.2-40,64.2-105.9,86.1
				c-49.8,16.5-115.4,25.1-184.4,25.1c-70.8,0-137.8-8.1-188.2-25.3C4.2,301.7-34.2,267.2-34.2,237.6c0-28.8,36-60.5,96.5-81.6
				C113.5,138.1,182.7,127.4,256.2,127.4L256.2,127.4z"/>
			<path class="st3" d="M160.3,182.8c36.3-63,79.1-116.3,119.8-151.7c49-42.6,95.6-59.3,120.7-44.8c26.2,15.1,35.7,66.7,21.7,134.7
				c-10.6,51.4-35.9,112.5-70.4,172.3c-35.4,61.3-75.9,115.3-115.9,150.4c-50.7,44.3-99.8,60.4-125.5,45.6
				C85.7,475,76.2,427.9,88.2,364.9C98.3,311.7,123.6,246.4,160.3,182.8L160.3,182.8z"/>
			<path class="st3" d="M160.4,293.6C124,230.6,99.2,166.9,88.8,114.1C76.3,50.3,85.2,1.6,110.3-12.9c26.2-15.1,75.6,2.4,127.6,48.5
				c39.3,34.9,79.6,87.3,114.2,147c35.5,61.3,62,123.3,72.4,175.5c13.1,66.1,2.5,116.6-23.2,131.4c-24.9,14.4-70.5-0.8-119-42.7
				C241.1,411.7,197.2,357.1,160.4,293.6L160.4,293.6z"/>
		</g>
	</g>
	<path class="st4" d="M66.8,39.6l-4.6-6.9c2.3-0.2,4.4-1.9,4.4-5c0-3.1-2.2-5.1-5.3-5.1h-6.8v17h2.1v-6.8h3.4l4.3,6.8L66.8,39.6z
		 M61,30.9h-4.5v-6.5H61c2,0,3.4,1.3,3.4,3.2S63,30.9,61,30.9L61,30.9z M74.7,39.9c2,0,3.7-0.7,4.9-1.9l-0.9-1.3
		c-1,1-2.4,1.6-3.8,1.6c-2.7,0-4.3-1.9-4.4-4.3h10v-0.5c0-3.7-2.2-6.6-5.9-6.6c-3.5,0-6.1,2.9-6.1,6.5C68.4,37.2,71,39.8,74.7,39.9
		L74.7,39.9z M78.5,32.6h-8.1c0.1-1.9,1.4-4.1,4-4.1C77.2,28.5,78.5,30.8,78.5,32.6z M93.1,39.6v-8.5c0-3-2.2-4.2-4.8-4.2
		c-2,0-3.6,0.7-4.9,2l0.9,1.3c1.1-1.2,2.3-1.7,3.8-1.7c1.8,0,3.1,0.9,3.1,2.6v2.2c-1-1.1-2.4-1.7-4.1-1.7c-2.1,0-4.3,1.3-4.3,4.1
		c0,2.7,2.2,4.1,4.3,4.1c1.7,0,3.1-0.6,4.1-1.7v1.4L93.1,39.6z M87.8,38.5c-1.8,0-3-1.1-3-2.7c0-1.6,1.3-2.7,3-2.7
		c1.4,0,2.7,0.5,3.4,1.5v2.3C90.5,38,89.2,38.5,87.8,38.5L87.8,38.5z M102.4,39.9c2.2,0,3.6-0.9,4.5-2.1l-1.3-1.2
		c-0.8,1.1-1.9,1.6-3.1,1.6c-2.6,0-4.3-2-4.3-4.8s1.6-4.8,4.3-4.8c1.3,0,2.3,0.5,3.1,1.6l1.3-1.2c-0.9-1.2-2.3-2.1-4.5-2.1
		c-3.7,0-6.2,2.8-6.2,6.5C96.2,37,98.7,39.8,102.4,39.9L102.4,39.9z M112.7,39.9c1.1,0,1.8-0.3,2.3-0.8l-0.6-1.4
		c-0.3,0.3-0.8,0.5-1.3,0.5c-0.8,0-1.3-0.7-1.3-1.6v-7.7h2.5v-1.7h-2.5v-3.4H110v3.4h-2v1.7h2V37C110,38.8,110.9,39.9,112.7,39.9
		L112.7,39.9z"/>
</g>
<g id="Node_JS" transform="matrix(.217946 0 0 .217946 4.120542 14.085548)" class="st0">
	<path class="st5" d="M471,52.1c-1.2,0-2.5,0.3-3.5,0.9l-33.9,19.6c-2.2,1.3-3.5,3.7-3.5,6.2v39.1c0,2.5,1.3,4.9,3.5,6.2l8.9,5.1
		c4.3,2.1,5.9,2.1,7.8,2.1c6.4,0,10-3.9,10-10.6V82c0-0.5-0.5-0.9-1-0.9H455c-0.5,0-1,0.4-1,0.9v38.6c0,3-3.1,6-8.1,3.5l-9.2-5.4
		c-0.3-0.2-0.6-0.5-0.6-0.9V78.7c0-0.4,0.2-0.7,0.6-0.9l33.8-19.5c0.3-0.2,0.7-0.2,1,0l33.8,19.5c0.3,0.2,0.6,0.6,0.6,0.9v39.1
		c0,0.4-0.2,0.8-0.5,0.9l-33.9,19.5c-0.3,0.2-0.7,0.2-1,0l-8.7-5.2c-0.3-0.2-0.6-0.1-0.9,0c-2.4,1.4-2.9,1.5-5.1,2.3
		c-0.6,0.2-1.4,0.5,0.3,1.4l11.4,6.7c1.1,0.6,2.3,0.9,3.5,0.9c1.3,0,2.4-0.3,3.5-0.9l33.9-19.5c2.2-1.3,3.5-3.7,3.5-6.2V78.7
		c0-2.5-1.3-4.9-3.5-6.2L474.6,53C473.5,52.3,472.3,52.1,471,52.1L471,52.1z M480.1,80c-9.6,0-15.4,4.1-15.4,10.9
		c0,7.4,5.7,9.4,15,10.4c11.1,1.1,11.9,2.7,11.9,4.9c0,3.8-3,5.4-10.1,5.4c-9,0-10.9-2.2-11.6-6.7c-0.1-0.5-0.4-0.9-0.9-0.9h-4.4
		c-0.6,0-1,0.5-1,1c0,5.7,3.1,12.4,17.9,12.4c10.7,0,16.9-4.2,16.9-11.6c0-7.3-5-9.3-15.4-10.7c-10.5-1.4-11.5-2.1-11.5-4.5
		c0-2,0.9-4.8,8.6-4.8c7,0,9.5,1.5,10.6,6.2c0.1,0.4,0.5,0.8,0.9,0.8h4.4c0.3,0,0.5-0.2,0.7-0.4c0.2-0.2,0.3-0.4,0.3-0.7
		C496.3,83.8,490.9,80,480.1,80L480.1,80z"/>
	<path class="st6" d="M271.8,0.9c-0.4,0-0.8,0.1-1.1,0.3c-0.7,0.4-1.1,1.1-1.1,1.9v55c0,0.5-0.3,1-0.7,1.3c-0.5,0.3-1,0.3-1.5,0
		l-9-5.2c-1.3-0.8-3-0.8-4.3,0l-35.9,20.7c-1.3,0.8-2.2,2.3-2.2,3.8v41.4c0,1.5,0.8,3,2.2,3.7l35.9,20.7c1.3,0.8,3,0.8,4.3,0
		l35.9-20.7c1.3-0.8,2.2-2.2,2.2-3.7V16.8c0-1.6-0.9-3-2.2-3.8L272.9,1.1C272.5,0.9,272.2,0.8,271.8,0.9L271.8,0.9z M40.8,52.6
		c-0.7,0-1.3,0.1-1.9,0.5L3,73.8c-1.3,0.8-2.2,2.2-2.2,3.7l0.1,55.6c0,0.8,0.4,1.5,1.1,1.9c0.7,0.4,1.5,0.4,2.2,0l21.3-12.2
		c1.4-0.8,2.2-2.2,2.2-3.7v-26c0-1.6,0.8-3,2.2-3.7l9.1-5.3c0.7-0.4,1.4-0.6,2.2-0.6c0.8,0,1.5,0.2,2.2,0.6l9.1,5.2
		c1.3,0.8,2.2,2.2,2.2,3.7v26c0,1.5,0.9,2.9,2.2,3.7L77.9,135c0.7,0.4,1.5,0.4,2.2,0c0.7-0.4,1.1-1.1,1.1-1.9l0.1-55.6
		c0-1.5-0.8-3-2.2-3.7L43.2,53.1c-0.6-0.4-1.3-0.5-1.9-0.5L40.8,52.6L40.8,52.6z M363.4,53.1c-0.8,0-1.5,0.2-2.2,0.6l-35.9,20.7
		c-1.3,0.8-2.2,2.2-2.2,3.7v41.4c0,1.6,0.9,3,2.2,3.7l35.6,20.3c1.3,0.8,2.9,0.8,4.2,0.1l21.6-12c0.7-0.4,1.1-1.1,1.1-1.9
		s-0.4-1.5-1.1-1.9l-36.1-20.7c-0.7-0.4-1.1-1.2-1.1-1.9v-13c0-0.8,0.5-1.5,1.1-1.9l11.2-6.5c0.7-0.4,1.5-0.4,2.2,0l11.2,6.5
		c0.7,0.4,1.1,1.1,1.1,1.9v10.2c0,0.8,0.4,1.5,1.1,1.9c0.7,0.4,1.5,0.4,2.2,0l21.5-12.5c1.3-0.8,2.2-2.2,2.2-3.7v-10
		c0-1.5-0.8-3-2.2-3.7l-35.7-20.7C364.9,53.3,364.2,53.1,363.4,53.1L363.4,53.1z M256.1,84c0.2,0,0.4,0,0.6,0.1l12.3,7.1
		c0.3,0.2,0.6,0.6,0.6,0.9v14.2c0,0.4-0.2,0.7-0.6,0.9l-12.3,7.1c-0.3,0.2-0.7,0.2-1.1,0l-12.3-7.1c-0.3-0.2-0.6-0.6-0.6-0.9V92.2
		c0-0.4,0.2-0.7,0.6-0.9l12.3-7.1C255.8,84.1,255.9,84,256.1,84L256.1,84L256.1,84z"/>
	<path class="st5" d="M148.7,52.9c-0.8,0-1.5,0.2-2.2,0.6l-35.9,20.6c-1.3,0.8-2.2,2.3-2.2,3.8v41.4c0,1.5,0.8,3,2.2,3.7l35.9,20.7
		c1.3,0.8,3,0.8,4.3,0l35.9-20.7c1.3-0.8,2.2-2.2,2.2-3.7V77.9c0-1.6-0.8-3-2.2-3.8l-35.9-20.6C150.2,53.1,149.4,52.9,148.7,52.9
		L148.7,52.9z M363.4,89.9c-0.1,0-0.3,0-0.4,0.1l-6.9,4c-0.3,0.1-0.4,0.4-0.4,0.7v7.9c0,0.3,0.2,0.6,0.4,0.7l6.9,4
		c0.2,0.1,0.5,0.1,0.8,0l6.9-4c0.3-0.1,0.4-0.4,0.4-0.7v-7.9c0-0.3-0.2-0.6-0.4-0.7l-6.9-4C363.6,89.8,363.5,89.9,363.4,89.9
		L363.4,89.9z"/>
</g>
<g id="TypeScript" class="st0">
	<path class="st7" d="M41,30v19h38V11H41V30z M64.1,42.1c0.2-0.1,0.8-0.5,1.4-0.8l1.1-0.6l0.2,0.3c0.3,0.5,1,1.2,1.4,1.4
		c1.2,0.6,2.9,0.5,3.7-0.2c0.3-0.3,0.5-0.7,0.5-1.1l0-0.1v0c0-0.4-0.1-0.6-0.3-1c-0.3-0.4-0.9-0.8-2.6-1.5c-2-0.8-2.8-1.4-3.6-2.2
		c-0.5-0.5-0.8-1.2-1-1.9l0,0c-0.1-0.5-0.2-1.9-0.1-2.4c0.4-1.9,1.8-3.2,3.9-3.6c0.7-0.1,2.2-0.1,2.9,0.1v0c1,0.2,1.7,0.7,2.4,1.4
		c0.3,0.4,0.9,1.1,0.9,1.2c0,0-1.6,1.2-2.6,1.8c0,0-0.2-0.1-0.3-0.4c-0.5-0.7-1-1-1.8-1.1c-1.2-0.1-1.9,0.5-1.9,1.5l0,0.1
		c0,0.2,0.1,0.5,0.2,0.7l0,0c0.3,0.5,0.7,0.8,2.2,1.5c2.7,1.2,3.9,1.9,4.6,3c0.8,1.2,1,3.2,0.4,4.6c-0.6,1.6-2.1,2.7-4.2,3
		c-0.7,0.1-2.2,0.1-2.9,0c-1.5-0.3-3-1-3.9-2c-0.3-0.4-1-1.4-1-1.5C63.8,42.2,63.9,42.1,64.1,42.1z M49.3,30.1c0-0.8,0-1.6,0-1.6
		c0,0,3,0,6.7,0l6.6,0l0,1.6l0,1.6h-4.9v14.1h-3.5V31.6h-4.9C49.3,31.6,49.3,30.1,49.3,30.1z"/>
</g>
<g id="JavaScript" class="st0">
	<path class="st8" d="M41,11h38v38H41V11z"/>
	<path class="st1" d="M51,42.8l2.9-1.8c0.6,1,1.1,1.8,2.3,1.8c1.2,0,1.9-0.5,1.9-2.2V28.4h3.6v12.2c0,3.7-2.2,5.4-5.3,5.4
		C53.5,46,51.8,44.5,51,42.8 M63.6,42.4l2.9-1.7c0.8,1.2,1.8,2.2,3.5,2.2c1.5,0,2.4-0.7,2.4-1.8c0-1.2-1-1.7-2.6-2.4L69,38.3
		c-2.6-1.1-4.3-2.5-4.3-5.4c0-2.7,2-4.7,5.2-4.7c2.3,0,3.9,0.8,5.1,2.9l-2.8,1.8c-0.6-1.1-1.3-1.5-2.3-1.5c-1,0-1.7,0.7-1.7,1.5
		c0,1.1,0.7,1.5,2.2,2.2l0.9,0.4c3,1.3,4.7,2.6,4.7,5.6c0,3.2-2.5,5-5.9,5C66.8,46,64.7,44.4,63.6,42.4"/>
</g>
<g id="PHP" transform="matrix(.164883 0 0 -.162632 11.737077 58.329876)" class="st0">
	<g class="st1">
		<defs>
			<path id="SVGID_1_" d="M69.5,167.9c0-67.7,104.3-122.5,232.9-122.5s232.9,54.9,232.9,122.5S431,290.4,302.4,290.4
				S69.5,235.5,69.5,167.9"/>
		</defs>
		<clipPath id="SVGID_2_">
			<use xlink:href="#SVGID_1_"  style="overflow:visible;"/>
		</clipPath>
		<g class="st9">
			
				<radialGradient id="SVGID_3_" cx="-5431.9219" cy="-3099.1736" r="0.8423" gradientTransform="matrix(59.8621 0 0 -59.0448 325375.4688 -182742.8594)" gradientUnits="userSpaceOnUse">
				<stop  offset="0" style="stop-color:#AEB2D5"/>
				<stop  offset="0.3" style="stop-color:#AEB2D5"/>
				<stop  offset="0.75" style="stop-color:#484C89"/>
				<stop  offset="1" style="stop-color:#484C89"/>
			</radialGradient>
			<path class="st10" d="M69.5,167.9c0-67.7,104.3-122.5,232.9-122.5s232.9,54.9,232.9,122.5S431,290.4,302.4,290.4
				S69.5,235.5,69.5,167.9"/>
		</g>
	</g>
	<g class="st1">
		<defs>
			<rect id="SVGID_4_" x="262.4" y="145.7" width="80" height="44.4"/>
		</defs>
		<clipPath id="SVGID_5_">
			<use xlink:href="#SVGID_4_"  style="overflow:visible;"/>
		</clipPath>
		<g class="st11">
			<path class="st12" d="M302.4,54.5c123.6,0,223.8,50.8,223.8,113.4S426,281.3,302.4,281.3S78.6,230.5,78.6,167.9
				S178.8,54.5,302.4,54.5"/>
		</g>
	</g>
	<g class="st1">
		<defs>
			<rect id="SVGID_6_" x="262.4" y="145.7" width="80" height="44.4"/>
		</defs>
		<clipPath id="SVGID_7_">
			<use xlink:href="#SVGID_6_"  style="overflow:visible;"/>
		</clipPath>
		<g class="st13">
			<path d="M196.1,153.8c10.2,0,17.7,1.9,22.5,5.6c4.7,3.7,8,10,9.7,18.8c1.6,8.3,1,14-1.8,17.1c-2.9,3.2-9.1,4.8-18.4,4.8h-16.2
				l-9-46.3L196.1,153.8L196.1,153.8z M142.9,96.8c-0.8,0-1.5,0.3-1.9,0.9c-0.5,0.6-0.7,1.3-0.5,2.1l23.9,122.8c0.2,1.2,1.3,2,2.5,2
				h51.4c16.2,0,28.2-4.4,35.8-13c7.6-8.7,9.9-20.9,7-36.2c-1.2-6.2-3.3-12-6.2-17.2c-2.9-5.2-6.7-10-11.4-14.3
				c-5.6-5.2-11.9-9-18.7-11.2c-6.7-2.2-15.4-3.3-25.7-3.3h-20.8l-5.9-30.6c-0.2-1.2-1.3-2-2.5-2L142.9,96.8L142.9,96.8z"/>
			<path class="st14" d="M193.9,197.6h14.2c11.3,0,15.2-2.5,16.6-4c2.2-2.5,2.6-7.6,1.2-15c-1.6-8.2-4.6-14-8.8-17.3
				c-4.3-3.3-11.4-5-21-5h-10.1L193.9,197.6L193.9,197.6z M218.2,227.1h-51.4c-2.4,0-4.5-1.7-5-4.1L138,100.2
				c-0.5-2.7,1.3-5.4,4-5.9c0.3-0.1,0.6-0.1,1-0.1h26.7c2.4,0,4.5,1.7,5,4.1l5.5,28.6h18.7c10.6,0,19.5,1.2,26.5,3.4
				c7.2,2.3,13.8,6.3,19.7,11.8c4.8,4.5,8.8,9.5,11.9,14.9c3,5.4,5.2,11.5,6.5,17.9c3.1,16.1,0.6,29-7.6,38.3
				C247.8,222.4,235.2,227.1,218.2,227.1 M179.8,151.3h16.3c10.8,0,18.8,2,24.1,6.1s8.8,10.8,10.7,20.3c1.8,9.1,1,15.6-2.4,19.3
				c-3.4,3.8-10.2,5.6-20.3,5.6h-18.3L179.8,151.3 M218.2,222.1c15.5,0,26.8-4.1,33.9-12.2s9.2-19.5,6.4-34
				c-1.2-6-3.1-11.5-5.9-16.4s-6.4-9.5-10.9-13.6c-5.3-5-11.3-8.6-17.8-10.7c-6.5-2.1-14.8-3.2-25-3.2H176l-6.3-32.6h-26.7
				l23.9,122.8L218.2,222.1"/>
			<path d="M322.3,129.4c-0.8,0-1.5,0.3-1.9,0.9c-0.5,0.6-0.7,1.3-0.5,2.1l10.6,54.3c1,5.2,0.8,8.9-0.7,10.4
				c-0.9,1-3.6,2.6-11.5,2.6h-19.1l-13.3-68.3c-0.2-1.2-1.3-2-2.5-2h-26.5c-1.4,0-2.5,1.1-2.5,2.5c0,0.2,0,0.3,0,0.5l23.9,122.8
				c0.2,1.2,1.3,2,2.5,2h26.5c1.4,0,2.5-1.1,2.5-2.5c0-0.2,0-0.3,0-0.5l-5.8-29.6h20.6c15.7,0,26.3-2.8,32.5-8.4
				c6.3-5.8,8.3-15.1,5.9-27.6l-11.1-57.1c-0.2-1.2-1.3-2-2.5-2L322.3,129.4L322.3,129.4z"/>
			<path class="st14" d="M307.2,259.7h-26.5c-2.4,0-4.5-1.7-5-4.1l-23.9-122.8c-0.5-2.7,1.3-5.4,4-5.9c0.3-0.1,0.6-0.1,1-0.1h26.5
				c2.4,0,4.5,1.7,5,4.1l12.9,66.2h17c7.9,0,9.5-1.7,9.6-1.8c0.5-0.5,1.1-2.9,0.1-8.2l-10.6-54.3c-0.5-2.7,1.3-5.4,4-5.9
				c0.3-0.1,0.6-0.1,1-0.1h27c2.4,0,4.5,1.7,5,4.1l11.1,57.1c2.6,13.4,0.4,23.5-6.6,29.9c-6.7,6.1-17.9,9.1-34.2,9.1H307l5.2,26.6
				c0.5,2.7-1.3,5.4-4,5.9C307.8,259.7,307.5,259.7,307.2,259.7 M307.2,254.7l-6.3-32.6h23.6c14.9,0,25.1-2.6,30.8-7.8
				c5.6-5.2,7.3-13.6,5.1-25.2l-11.1-57.1h-27l10.6,54.3c1.2,6.2,0.8,10.4-1.3,12.6c-2.1,2.2-6.5,3.4-13.3,3.4H297l-13.7-70.3h-26.5
				l23.9,122.8L307.2,254.7"/>
			<path d="M404.8,153.8c10.2,0,17.7,1.9,22.5,5.6c4.7,3.7,8,10,9.7,18.8c1.6,8.3,1,14-1.8,17.1c-2.9,3.2-9.1,4.8-18.4,4.8h-16.2
				l-9-46.3L404.8,153.8L404.8,153.8z M351.7,96.8c-0.8,0-1.5,0.3-1.9,0.9c-0.5,0.6-0.7,1.3-0.5,2.1l23.9,122.8c0.2,1.2,1.3,2,2.5,2
				H427c16.2,0,28.2-4.4,35.8-13c7.6-8.7,9.9-20.9,7-36.2c-1.2-6.2-3.3-12-6.2-17.2c-2.9-5.2-6.7-10-11.4-14.3
				c-5.6-5.2-11.9-9-18.7-11.2c-6.7-2.2-15.4-3.3-25.7-3.3h-20.8l-5.9-30.6c-0.2-1.2-1.3-2-2.5-2L351.7,96.8L351.7,96.8z"/>
			<path class="st14" d="M402.7,197.6h14.2c11.3,0,15.2-2.5,16.6-4c2.2-2.5,2.6-7.6,1.2-15c-1.6-8.2-4.6-14-8.8-17.3
				c-4.3-3.3-11.4-5-21-5h-10.1L402.7,197.6L402.7,197.6z M427,227.1h-51.4c-2.4,0-4.5-1.7-5-4.1l-23.9-122.8
				c-0.5-2.7,1.3-5.4,4-5.9c0.3-0.1,0.6-0.1,1-0.1h26.7c2.4,0,4.5,1.7,5,4.1l5.5,28.6h18.7c10.6,0,19.5,1.2,26.5,3.4
				c7.2,2.3,13.8,6.3,19.7,11.8c4.8,4.5,8.8,9.5,11.9,14.9c3,5.4,5.2,11.5,6.5,17.9c3.1,16.1,0.6,29-7.6,38.3
				C456.6,222.4,443.9,227.1,427,227.1 M388.5,151.3h16.3c10.8,0,18.8,2,24.1,6.1c5.3,4.1,8.8,10.8,10.7,20.3
				c1.8,9.1,1,15.6-2.4,19.3s-10.2,5.6-20.3,5.6h-18.3L388.5,151.3 M427,222.1c15.5,0,26.8-4.1,33.9-12.2c7.1-8.1,9.2-19.5,6.4-34
				c-1.2-6-3.1-11.5-5.9-16.4c-2.8-5-6.4-9.5-10.9-13.6c-5.3-5-11.3-8.6-17.8-10.7c-6.5-2.1-14.8-3.2-25-3.2h-22.9l-6.3-32.6h-26.7
				L375.5,222L427,222.1"/>
		</g>
	</g>
</g>
<g id="Git" class="st0">
	<path class="st15" d="M69.9,23.4c-2.2,0-3.8,1-3.8,3.7c0,1.9,1,3.3,3.7,3.3c2.2,0,3.8-1.3,3.8-3.4C73.5,24.6,72.1,23.4,69.9,23.4z
		 M65.4,41.7c-0.5,0.6-1,1.3-1,2.1c0,1.6,2,2.1,4.8,2.1c2.3,0,5.4-0.2,5.4-2.3c0-1.3-1.5-1.4-3.4-1.4C71.3,42.1,65.4,41.7,65.4,41.7
		z M77.3,23.5c0.7,0.9,1.4,2.2,1.4,4c0,4.4-3.4,7.1-8.5,7.1c-1.3,0-2.4-0.2-3.1-0.3l-1.3,2.1l3.9,0.2c6.9,0.4,11,0.6,11,5.9
		c0,4.6-4,7.2-11,7.2c-7.2,0-9.9-1.8-9.9-5c0-1.8,0.8-2.7,2.2-4.1c-1.3-0.6-1.8-1.5-1.8-2.6c0-0.9,0.4-1.7,1.1-2.4
		c0.7-0.7,1.5-1.5,2.5-2.4c-1.9-1-3.4-3-3.4-6c0-4.6,3-7.7,9.1-7.7c1.7,0,2.7,0.2,3.7,0.4H81v3.4C80.9,23.2,77.3,23.5,77.3,23.5z
		 M88,16.3c-2.2,0-3.6-1.3-3.6-3.6c0-2.2,1.3-3.5,3.6-3.5c2.3,0,3.6,1.2,3.6,3.5C91.6,14.9,90.3,16.3,88,16.3z M82.8,40.2v-3.1
		l2-0.2c0.6-0.1,0.6-0.2,0.6-0.8V24.3c0-0.4-0.1-0.7-0.5-0.8l-2.2-0.7l0.4-3.2h8.3v16.5c0,0.6,0,0.7,0.6,0.8l2,0.2v3.1H82.8
		L82.8,40.2z M109.9,38.7c-1.7,0.8-4.2,1.6-6.5,1.6c-4.7,0-6.6-1.9-6.6-6.4V23.5c0-0.2,0-0.4-0.3-0.4h-2.8v-3.5
		c3.5-0.4,4.9-2.2,5.4-6.5h3.8v5.7c0,0.2,0,0.4,0.3,0.4h5.6v4h-5.9v9.5c0,2.3,0.6,3.3,2.7,3.3c1.1,0,2.2-0.2,3.2-0.6L109.9,38.7z"/>
	<path class="st16" d="M50.9,28.2L32.7,10c-1-1-2.7-1-3.8,0l-3.8,3.8l4.8,4.8c1.1-0.4,2.4-0.2,3.3,0.8c0.9,0.9,1.1,2.2,0.7,3.3
		l4.6,4.6c1.1-0.4,2.4-0.2,3.3,0.7c1.3,1.3,1.3,3.3,0,4.5c-1.3,1.3-3.3,1.3-4.5,0c-1-1-1.2-2.3-0.7-3.4l-4.3-4.3v11.4
		c0.3,0.2,0.6,0.3,0.9,0.6c1.3,1.3,1.3,3.3,0,4.5c-1.3,1.3-3.3,1.3-4.5,0c-1.3-1.3-1.3-3.3,0-4.5c0.3-0.3,0.6-0.6,1-0.7V24.5
		c-0.4-0.2-0.7-0.4-1-0.7c-1-1-1.2-2.3-0.7-3.5l-4.8-4.6L10.7,28.1c-1,1-1,2.7,0,3.8l18.2,18.2c1,1,2.7,1,3.8,0L50.8,32
		C51.9,30.9,51.9,29.2,50.9,28.2z"/>
	<path class="st17" d="M9.9,9.1h100v41.7H9.9V9.1z"/>
</g>
<g id="Firebase" class="st0">
	<g transform="matrix(.090203 0 0 .090203 11.921255 15.418666)" class="st1">
		<path class="st18" d="M-3.7,275.4l2.1-3L98.8,81.9l0.2-2L54.8-3.2c-3.7-7-14.1-5.2-15.4,2.6L-3.7,275.4z"/>
		<g>
			<path id="D" class="st19" d="M-2.5,273.1l1.6-3.1L98.5,81.5L54.3-2c-3.7-6.9-13-5.1-14.2,2.6L-2.5,273.1z"/>
		</g>
		<g class="st0">
			<g class="st1">
				<path id="D_1_" d="M-2.5,273.1l1.6-3.1L98.5,81.5L54.3-2c-3.7-6.9-13-5.1-14.2,2.6L-2.5,273.1z"/>
			</g>
		</g>
		<path class="st20" d="M131.3,142.8l33-33.8l-33-62.9c-3.1-6-11.9-6-15,0L98.7,79.7v2.9L131.3,142.8z"/>
		<g>
			<path id="C" class="st21" d="M130.7,141.4l32-32.8l-32-61c-3-5.8-10.4-6.4-13.4-0.6L99.5,81L99,82.8L130.7,141.4z"/>
		</g>
		<g class="st0">
			<g class="st1">
				<path id="C_1_" d="M130.7,141.4l32-32.8l-32-61c-3-5.8-10.4-6.4-13.4-0.6L99.5,81L99,82.8L130.7,141.4z"/>
			</g>
		</g>
		<path class="st22" d="M98.8,79.5L-3.7,275.4l1-1l3.5-1.4l128.5-128l1.6-4.4L98.8,79.5z"/>
		<path class="st23" d="M135.4,339.9l116.3-64.8L218.5,70.6c-1-6.4-8.9-8.9-13.5-4.3L-3.7,275.4l115.6,64.5
			C119.2,344,128.1,344,135.4,339.9"/>
		<path class="st24" d="M250.6,274.6l-33-202.9c-1-6.3-7.6-9-12.1-4.4L-2.4,275l114.3,63.9c7.2,4,16.1,4,23.3,0L250.6,274.6z"/>
		<path class="st25" d="M135.4,338c-7.3,4.1-16.2,4.1-23.5,0L-2.8,274.4l-0.9,1l115.6,64.5c7.3,4.1,16.2,4.1,23.5,0l116.3-64.8
			l-0.3-1.8L135.4,338z"/>
	</g>
	<path class="st26" d="M42.6,37.6h-1.8V23.7h8.1v1.7h-6.3v4.6h5.7v1.7h-5.7V37.6z M52,25.7c-0.2,0.2-0.5,0.4-0.9,0.4
		c-0.3,0-0.7-0.1-0.9-0.4c-0.2-0.2-0.4-0.6-0.4-0.9c0-0.3,0.1-0.7,0.4-0.9c0.2-0.2,0.6-0.4,0.9-0.4c0.3,0,0.7,0.1,0.9,0.4
		c0.2,0.2,0.4,0.6,0.4,0.9C52.4,25.1,52.3,25.4,52,25.7z M52,37.6h-1.8V28H52V37.6z M55.9,37.6h-1.8V28h1.7v1.6h0.1
		c0.2-0.5,0.6-0.9,1.1-1.3s1.1-0.5,1.6-0.5s1,0.1,1.3,0.2l-0.7,1.7c-0.2-0.1-0.5-0.1-1-0.1c-0.6,0-1.2,0.3-1.7,0.8s-0.7,1.2-0.7,2
		L55.9,37.6L55.9,37.6z M64.7,37.9c-1.4,0-2.6-0.5-3.5-1.4s-1.3-2.2-1.3-3.6c0-1.4,0.4-2.6,1.3-3.6s2-1.5,3.3-1.5
		c1.4,0,2.5,0.5,3.4,1.4s1.3,2.1,1.3,3.7l0,0.3h-7.5c0.1,1,0.4,1.7,1,2.3c0.6,0.5,1.3,0.8,2.1,0.8c1.3,0,2.1-0.5,2.6-1.6l1.6,0.7
		c-0.3,0.7-0.8,1.4-1.5,1.9S65.7,37.9,64.7,37.9L64.7,37.9z M67.2,31.7c0-0.5-0.3-1.1-0.7-1.6s-1.1-0.7-2-0.7
		c-0.7,0-1.2,0.2-1.7,0.6s-0.8,1-1,1.7L67.2,31.7L67.2,31.7z M75.6,37.9c-0.7,0-1.4-0.2-1.9-0.5s-1-0.7-1.3-1.2h-0.1v1.3h-1.7V23.7
		h1.8V28l-0.1,1.3h0.1c0.3-0.5,0.7-0.9,1.3-1.2s1.2-0.5,1.9-0.5c1.2,0,2.3,0.5,3.2,1.5s1.3,2.2,1.3,3.6s-0.4,2.6-1.3,3.6
		S76.8,37.8,75.6,37.9L75.6,37.9z M75.3,36.2c0.8,0,1.5-0.3,2.1-0.9s0.9-1.5,0.9-2.5s-0.3-1.9-0.9-2.5s-1.3-0.9-2.1-0.9
		c-0.8,0-1.6,0.3-2.1,0.9c-0.6,0.6-0.9,1.5-0.9,2.5s0.3,1.9,0.9,2.5S74.4,36.2,75.3,36.2L75.3,36.2z M84.8,37.9
		c-1,0-1.9-0.3-2.5-0.9s-1-1.4-1-2.3c0-1,0.4-1.8,1.2-2.4s1.8-0.9,3-0.9c1,0,1.9,0.2,2.6,0.6v-0.3c0-0.7-0.2-1.3-0.7-1.7
		s-1.1-0.6-1.8-0.6c-0.5,0-1,0.1-1.4,0.4c-0.4,0.2-0.7,0.6-0.9,1L81.6,30c0.2-0.6,0.7-1.1,1.3-1.6s1.5-0.7,2.6-0.7
		c1.2,0,2.2,0.4,3,1.1s1.2,1.7,1.2,3v5.7H88v-1.3h-0.1C87.2,37.3,86.2,37.9,84.8,37.9L84.8,37.9z M85.1,36.2c0.7,0,1.4-0.3,2-0.8
		s0.9-1.2,0.9-2c-0.5-0.4-1.3-0.6-2.3-0.6c-0.9,0-1.5,0.2-2,0.6s-0.7,0.8-0.7,1.3c0,0.5,0.2,0.8,0.6,1.1S84.6,36.2,85.1,36.2
		L85.1,36.2z M94.9,37.9c-1.1,0-1.9-0.3-2.6-0.8c-0.7-0.5-1.2-1.2-1.5-1.9l1.6-0.7c0.5,1.2,1.4,1.8,2.6,1.8c0.6,0,1-0.1,1.4-0.4
		s0.5-0.6,0.5-1c0-0.6-0.4-1-1.3-1.3l-1.9-0.5c-0.6-0.2-1.2-0.5-1.7-0.9s-0.8-1-0.8-1.7c0-0.8,0.4-1.5,1.1-2s1.6-0.8,2.7-0.8
		c0.8,0,1.6,0.2,2.2,0.6s1.1,0.9,1.4,1.6l-1.6,0.6c-0.3-0.8-1.1-1.3-2.2-1.3c-0.5,0-1,0.1-1.3,0.3s-0.5,0.5-0.5,0.9
		c0,0.5,0.4,0.9,1.3,1.1l1.9,0.4c0.9,0.2,1.6,0.6,2,1.1s0.6,1.1,0.6,1.7c0,0.9-0.3,1.6-1,2.1S96,37.9,94.9,37.9L94.9,37.9z
		 M104.4,37.9c-1.4,0-2.6-0.5-3.5-1.4s-1.3-2.2-1.3-3.6c0-1.4,0.4-2.6,1.3-3.6s2-1.5,3.3-1.5c1.4,0,2.5,0.5,3.4,1.4s1.3,2.1,1.3,3.7
		v0.3h-7.5c0.1,1,0.4,1.7,1,2.3c0.6,0.5,1.3,0.8,2.1,0.8c1.3,0,2.1-0.5,2.6-1.6l1.6,0.7c-0.3,0.7-0.8,1.4-1.5,1.9
		S105.5,37.9,104.4,37.9L104.4,37.9z M107,31.7c0-0.5-0.3-1.1-0.7-1.6s-1.1-0.7-2-0.7c-0.6,0-1.2,0.2-1.7,0.6c-0.5,0.4-0.8,1-1,1.7
		L107,31.7L107,31.7z"/>
</g>
<g id="MongoDB" class="st0">
	<path class="st27" d="M16.1,9.8l1.1,2c0.2,0.4,0.5,0.7,0.8,1c0.9,0.9,1.8,1.9,2.6,2.9c1.8,2.4,3.1,5.1,4,8c0.5,1.8,0.8,3.6,0.8,5.5
		c0.1,5.5-1.8,10.3-5.6,14.2c-0.6,0.6-1.3,1.2-2,1.7c-0.4,0-0.6-0.3-0.7-0.6c-0.3-0.5-0.5-1-0.6-1.6c-0.1-0.7-0.2-1.3-0.2-2v-0.3
		C16.3,40.6,16,9.9,16.1,9.8L16.1,9.8z"/>
	<path class="st28" d="M16.1,9.7c0-0.1-0.1,0-0.1,0c0,0.4-0.1,0.8-0.4,1.2c-0.3,0.4-0.6,0.7-1,1c-2,1.7-3.5,3.8-4.8,6.1
		c-1.6,3.1-2.5,6.5-2.8,10c-0.1,1.3,0.4,5.7,0.8,7c1.1,3.4,3.1,6.3,5.6,8.8c0.6,0.6,1.3,1.2,2,1.7c0.2,0,0.2-0.2,0.3-0.3
		c0.1-0.3,0.2-0.6,0.2-0.9c0.2-1.1,0.3-2.2,0.4-3.3L16.1,9.7L16.1,9.7z"/>
	<path class="st29" d="M17.2,46.5c0-0.5,0.3-0.9,0.6-1.4c-0.3-0.1-0.5-0.3-0.6-0.6c-0.1-0.2-0.2-0.5-0.3-0.7
		c-0.3-0.9-0.4-1.9-0.5-2.9v-0.6c-0.1,0.1-0.1,0.8-0.1,1c-0.1,1-0.2,2-0.4,3c-0.1,0.4-0.1,0.8-0.4,1.2c0,0,0,0.1,0,0.2
		c0.4,1.2,0.5,2.4,0.6,3.6v0.4c0,0.5,0,0.4,0.4,0.6c0.2,0.1,0.4,0.1,0.6,0.2c0.1,0,0.2-0.1,0.2-0.2l-0.1-0.7v-2
		C17.1,47.2,17.2,46.9,17.2,46.5L17.2,46.5z"/>
	<g transform="matrix(1.021124 0 0 1.021124 -4.376266 -1.845946)" class="st1">
		<path class="st30" d="M37.7,38.2v2.1c0,0.1,0,0.2,0,0.2c0,0.2,0.2,0.4,0.4,0.5c0.2,0.1,0.4,0.1,0.6,0.1c0.1,0,0.2,0.1,0.2,0.2
			c0,0.5,0,0.5-0.5,0.5c-1.1-0.1-2.1-0.1-3.2,0h-0.1c-0.3,0-0.4,0-0.4-0.3c0-0.1,0-0.1,0-0.2c0-0.1,0.1-0.2,0.2-0.2
			c0.2,0,0.4-0.1,0.6-0.1c0.3-0.1,0.5-0.2,0.5-0.5c0-0.3,0-0.6,0-1l0-3.7c0-0.2-0.1-0.4-0.3-0.5c-0.2-0.1-0.5-0.2-0.8-0.3
			C35,35,35,35,34.9,35c-0.2-0.1-0.2-0.3,0-0.4c0.1,0,0.2-0.1,0.2-0.1c0.8-0.1,1.6-0.3,2.4-0.6c0.2-0.1,0.2,0,0.2,0.1
			c0,0.1,0,0.2,0,0.3c0,0.2,0,0.4,0,0.5c0,0.1,0,0.1,0.1,0.2s0.1,0,0.2,0c0.3-0.2,0.6-0.4,0.9-0.6c0.5-0.2,0.9-0.5,1.5-0.5
			c0.6-0.1,1.2,0.1,1.7,0.5c0.2,0.2,0.4,0.4,0.5,0.6c0.1,0.2,0.2,0.2,0.3,0.1c0.5-0.4,1.1-0.7,1.7-1c0.6-0.3,1.2-0.3,1.9-0.1
			c0.6,0.2,1.1,0.7,1.3,1.3c0.2,0.5,0.3,1,0.3,1.5v3.7c0,0.2,0.1,0.4,0.3,0.5c0.3,0.1,0.5,0.2,0.8,0.2c0.2,0,0.2,0,0.2,0.2
			c0,0.5-0.1,0.5-0.5,0.5c-1.1-0.1-2.2-0.1-3.3,0c-0.2,0-0.2,0-0.2-0.2v-0.1c0-0.4,0-0.4,0.3-0.5L46,41c0.2-0.1,0.4-0.3,0.4-0.5l0-1
			l0-2.7c0-0.2-0.1-0.5-0.2-0.7C46,35.3,45.2,35,44.5,35c-0.5,0.1-1,0.3-1.5,0.6c-0.1,0.1-0.2,0.1-0.2,0.3c0.1,0.9,0,1.8,0.1,2.6
			v1.9c0,0.3,0.1,0.5,0.5,0.6l0.6,0.1c0.1,0,0.2,0.1,0.2,0.2v0.1c0,0.4,0,0.4-0.4,0.4c-1.1-0.1-2.2,0-3.3,0c-0.4,0-0.4,0-0.4-0.4
			c0-0.2,0-0.2,0.2-0.3l0.5-0.1c0.4-0.1,0.5-0.2,0.6-0.7l0-0.9l0-2.7c0-0.3-0.1-0.7-0.3-1c-0.3-0.5-0.7-0.8-1.3-0.8
			c-0.6,0-1.1,0.2-1.6,0.5c-0.3,0.2-0.5,0.4-0.5,0.8L37.7,38.2L37.7,38.2z M63.5,38.3v1.9c0,0.1,0,0.3,0,0.4c0,0.2,0.1,0.3,0.3,0.4
			c0.2,0.1,0.5,0.1,0.7,0.1c0.1,0,0.2,0.1,0.2,0.2v0.1c0,0.5-0.1,0.5-0.5,0.5c-1-0.1-2.1-0.1-3.1,0l-0.4,0c-0.1,0-0.1,0-0.1-0.1
			c0-0.2,0-0.4,0-0.6c0-0.1,0.1-0.1,0.2-0.1c0.2,0,0.4-0.1,0.6-0.1c0.3-0.1,0.5-0.2,0.5-0.6l0-1.1V36c0-0.2-0.1-0.4-0.3-0.5
			c-0.2-0.1-0.5-0.2-0.8-0.3c-0.1,0-0.2-0.1-0.2-0.1c-0.2-0.1-0.2-0.3,0-0.4c0.1-0.1,0.2-0.1,0.3-0.1c0.9-0.1,1.7-0.3,2.5-0.7
			c0.1,0,0.1,0,0.2,0.1s0.1,0.2,0,0.3l0,0.6c0,0.1,0,0.2,0,0.2c0.1,0.1,0.1-0.1,0.2-0.1c0.4-0.3,0.8-0.6,1.3-0.8
			c0.4-0.2,0.9-0.3,1.4-0.3c0.9,0.1,1.6,0.5,2,1.3c0.2,0.4,0.3,0.9,0.4,1.4l0,1l0,3c0,0.2,0.1,0.4,0.3,0.5c0.2,0.1,0.5,0.1,0.7,0.2
			c0.2,0,0.2,0.1,0.2,0.3v0.1C70,42,70,42,69.5,42c-1-0.1-2-0.1-3.1,0c-0.1,0-0.3,0-0.4,0c-0.1,0-0.1,0-0.2-0.1c0-0.2-0.1-0.4,0-0.5
			c0-0.1,0.1-0.1,0.2-0.1l0.6-0.1c0.2-0.1,0.3-0.2,0.4-0.4l0-0.4l0-2.9c0-0.3,0-0.7-0.1-1c-0.2-0.7-0.7-1.2-1.4-1.3
			c-0.6-0.1-1.2,0.1-1.7,0.4c-0.3,0.2-0.4,0.4-0.4,0.7L63.5,38.3C63.5,38.4,63.5,38.4,63.5,38.3L63.5,38.3z"/>
		<path class="st31" d="M103.5,34.5c-0.2-1-0.5-1.9-1.2-2.7c-0.6-0.7-1.3-1.2-2.1-1.6c-0.9-0.4-1.8-0.5-2.7-0.5c-0.4,0-5.6,0.1-6,0
			c-0.1,0-0.2,0-0.2,0.1c-0.1,0.1-0.1,0.2-0.2,0.3c-0.2,0.4-0.2,0.3,0.2,0.4c0.3,0.1,0.6,0.1,1,0.2c0.3,0.1,0.5,0.3,0.6,0.6
			c0,0.1,0.1,5,0.1,7.2l-0.1,1.6c0,0.1,0,0.2-0.1,0.4c-0.1,0.2-0.2,0.3-0.3,0.4c-0.2,0.1-0.4,0.1-0.6,0.2c-0.4,0-0.4,0.1-0.5,0.5
			l0,0.2c0,0.2,0,0.2,0.2,0.2l4.1,0l1.6,0l1.1-0.1c1.3-0.2,2.4-0.8,3.3-1.6c0.5-0.5,1-1.1,1.3-1.7c0.4-0.8,0.5-1.6,0.6-2.4
			C103.6,35.4,103.6,35,103.5,34.5L103.5,34.5z M101.5,36.4c-0.1,0.9-0.2,1.7-0.7,2.5c-0.6,1-1.4,1.7-2.5,1.9
			c-0.5,0.1-1,0.2-1.5,0.1c-0.4,0-0.7-0.1-1.1-0.2c-0.6-0.2-0.8-0.6-0.8-1.2l0-8.2c0-0.5,0.2-0.6,0.6-0.6c0.5,0,1.1,0,1.6,0
			c0.6,0.1,1.1,0.2,1.7,0.4c0.4,0.2,0.8,0.4,1.1,0.7c0.7,0.6,1.2,1.4,1.5,2.4C101.5,34.9,101.6,35.6,101.5,36.4L101.5,36.4z
			 M114.9,37.7c0-0.1,0-0.2,0-0.2c-0.1-0.8-0.5-1.3-1.1-1.8c-0.4-0.3-0.8-0.5-1.3-0.6c-0.1,0-0.2-0.1-0.2-0.1c0-0.1,0.1-0.1,0.1-0.1
			c0.3-0.1,0.5-0.3,0.8-0.5c0.4-0.4,0.7-0.8,0.8-1.3c0.1-0.3,0.1-0.6,0.1-0.9c0-0.7-0.4-1.4-1-1.8c-0.6-0.5-1.4-0.7-2.1-0.7
			c-1.5,0-3,0-4.4,0c-0.4,0-0.8,0-1.3,0c-0.1,0-0.2,0-0.3,0.1c-0.1,0.2-0.2,0.4-0.3,0.6c0,0.1,0,0.1,0.1,0.2l0.9,0.1
			c0.4,0.1,0.6,0.3,0.7,0.6c0,0.2,0,0.5,0,0.7l0,2.6l0,5.1c0,0.3,0,0.6-0.1,0.9c0,0.2-0.2,0.4-0.4,0.4c-0.3,0.1-0.5,0.2-0.8,0.2
			c-0.2,0-0.3,0.1-0.4,0.2c-0.1,0.1-0.1,0.3-0.1,0.4c0,0.2,0,0.2,0.2,0.2c0.1,0,4.6,0.1,5.5,0c0.5-0.1,1-0.1,1.5-0.3
			c0.9-0.3,1.7-0.7,2.3-1.3c0.5-0.5,0.8-1.2,0.8-2C114.9,38.1,114.9,37.9,114.9,37.7L114.9,37.7z M108.2,32.1l0-1.1
			c0-0.2,0.1-0.3,0.3-0.3c0.3-0.1,0.7,0,1,0c0.3,0,0.6,0.1,1,0.2c0.6,0.2,1.1,0.5,1.3,1.1c0.1,0.3,0.2,0.5,0.2,0.8
			c0,0.4,0,0.8-0.2,1.1c-0.2,0.5-0.6,0.8-1.1,0.9s-2.1,0.1-2.3,0.1c-0.2,0-0.2,0-0.2-0.2v-1.3C108.2,33,108.2,32.6,108.2,32.1
			L108.2,32.1z M112.7,39.5c-0.2,0.6-0.7,1-1.3,1.3c-0.3,0.1-0.7,0.2-1,0.2c-0.4,0-0.8,0-1.3-0.1c-0.6-0.1-0.8-0.7-0.9-1.1
			c-0.1-0.7,0-1.4,0-1.9v-1.8c0-0.2,0-0.3,0.3-0.3l1.3,0l0.9,0.1c0.6,0.1,1.2,0.4,1.6,0.8c0.4,0.4,0.5,0.8,0.6,1.4
			C112.9,38.6,112.9,39,112.7,39.5L112.7,39.5z"/>
		<path class="st30" d="M77.9,35.4l0.4,0.1c0.4,0,0.8-0.1,1-0.7c0.1-0.3,0.1-0.5,0-0.8c-0.1,0-0.1,0.1-0.2,0.1
			c-0.2,0.2-0.4,0.3-0.7,0.3c-0.5,0.1-1,0-1.5-0.1L76.3,34c-0.5-0.2-1-0.2-1.4-0.2c-0.7,0.1-1.4,0.3-2,0.6c-0.7,0.4-1.1,0.9-1.3,1.6
			c-0.1,0.4-0.1,0.9-0.1,1.3c0.1,1,0.7,1.7,1.6,2.1c0.1,0,0.1,0,0.2,0.1c0.1,0.1,0.1,0.1,0,0.2l-0.3,0.2l-0.8,0.5
			c-0.2,0.1-0.2,0.2-0.2,0.4c0.1,0.3,0.2,0.5,0.4,0.7c0.2,0.2,0.4,0.3,0.6,0.4c0.2,0.1,0.2,0.1,0,0.2l-0.8,0.6
			c-0.3,0.2-0.5,0.4-0.7,0.7c-0.3,0.3-0.4,0.8-0.3,1.2c0.1,0.5,0.4,0.9,0.7,1.2c0.4,0.3,0.8,0.6,1.3,0.7c0.8,0.2,1.6,0.2,2.3,0.1
			c1.1-0.2,2.1-0.7,2.9-1.5c0.5-0.6,0.8-1.2,0.9-2c0.1-0.9-0.6-1.8-1.5-2L77,40.9l-2.3-0.2c-0.2,0-0.5-0.1-0.7-0.2
			c-0.3-0.2-0.3-0.5-0.2-0.7c0.1-0.2,0.3-0.2,0.5-0.3l0.4,0c0.9-0.1,1.7-0.5,2.3-1.1c0.3-0.3,0.6-0.7,0.7-1.2c0.2-0.6,0.2-1.2,0-1.8
			C77.7,35.4,77.8,35.3,77.9,35.4L77.9,35.4z M74.6,42.2c0.1,0,0.2,0,0.2,0c0.6,0,1.2,0.1,1.7,0.2c0.2,0.1,0.4,0.1,0.5,0.2
			c0.5,0.3,0.8,0.8,0.7,1.4c-0.1,0.6-0.4,1.1-1,1.3c-0.4,0.2-0.8,0.3-1.2,0.3c-0.2,0-0.3,0-0.4,0c-0.5,0-0.9,0-1.4-0.2
			c-0.3-0.1-0.6-0.3-0.8-0.5c-0.5-0.5-0.7-1.4,0-2.1C73.5,42.4,74,42.1,74.6,42.2z M76.2,37.9c-0.3,0.7-0.9,0.9-1.5,0.8
			c-0.6-0.1-1-0.4-1.3-0.9c-0.4-0.7-0.4-1.4-0.2-2.2c0.2-0.6,0.5-1,1.1-1.1c0.8-0.1,1.5,0.1,1.9,0.9c0.2,0.4,0.3,0.8,0.3,1.5
			C76.3,37.2,76.3,37.6,76.2,37.9L76.2,37.9z M58.9,37c-0.1-0.7-0.4-1.4-0.9-2c-0.8-0.8-1.7-1.2-2.8-1.2c-0.9,0-1.8,0.3-2.6,0.8
			c-0.8,0.5-1.4,1.2-1.6,2.1c-0.2,0.8-0.2,1.6,0,2.4c0.5,2.2,2.1,3.1,4.1,3c0.6,0,1.1-0.2,1.7-0.5c0.8-0.4,1.4-1,1.8-1.7
			c0.3-0.6,0.5-1.3,0.4-2.1L58.9,37L58.9,37z M57,40c-0.2,0.6-0.8,1.1-1.4,1.1c-0.6,0.1-1.2-0.1-1.7-0.4c-0.4-0.3-0.7-0.6-0.9-1
			c-0.6-1.1-0.7-2.3-0.4-3.6c0.1-0.4,0.3-0.7,0.6-1c0.5-0.5,1.1-0.6,1.8-0.4c0.6,0.1,1.1,0.5,1.5,1c0.4,0.5,0.6,1.1,0.7,1.8
			c0.1,0.3,0.1,0.6,0.1,0.8C57.3,39,57.2,39.5,57,40L57,40z M88.8,37.1c-0.1-0.8-0.4-1.5-1-2.1c-0.7-0.8-1.7-1.1-2.8-1.2
			c-0.9,0-1.8,0.2-2.5,0.7c-0.9,0.5-1.5,1.3-1.7,2.3c-0.3,1.1-0.2,2.2,0.3,3.3c0.4,1,1.2,1.6,2.2,1.8c1.1,0.3,2.2,0.2,3.2-0.3
			c0.9-0.4,1.5-1.1,1.9-2c0.2-0.5,0.3-1.1,0.3-1.8C88.9,37.5,88.8,37.3,88.8,37.1L88.8,37.1z M86.9,39.8c-0.2,0.7-0.7,1.2-1.5,1.3
			c-0.6,0.1-1.1-0.1-1.6-0.4c-0.4-0.3-0.7-0.7-0.9-1.1c-0.2-0.5-0.4-1-0.4-1.5c-0.1-0.6-0.1-1.3,0.1-1.9c0-0.1,0.1-0.3,0.1-0.4
			c0.4-1,1.2-1.4,2.2-1.2c0.7,0.1,1.2,0.5,1.6,1.1c0.4,0.5,0.5,1.1,0.6,1.8c0,0.3,0.1,0.5,0,0.8C87.1,38.9,87.1,39.4,86.9,39.8
			L86.9,39.8z"/>
	</g>
</g>
<g id="MySQL" class="st0">
	<g class="st1">
		<path class="st32" d="M28.3,37.3c-1.4,0-2.4,0.1-3.3,0.5c-0.3,0.1-0.7,0.1-0.7,0.4c0.1,0.1,0.2,0.4,0.3,0.5c0.2,0.4,0.5,0.8,0.9,1
			l1.1,0.8c0.7,0.4,1.4,0.6,2.1,1.1c0.4,0.2,0.7,0.5,1,0.8c0.2,0.1,0.3,0.4,0.5,0.4v-0.1c-0.1-0.2-0.2-0.4-0.3-0.5l-0.5-0.5
			c-0.5-0.7-1.1-1.2-1.8-1.7c-0.5-0.4-1.7-0.9-2-1.5l0,0c0.4,0,0.8-0.2,1.2-0.3c0.6-0.2,1.1-0.1,1.7-0.3l0.8-0.2v-0.2
			c-0.3-0.3-0.5-0.7-0.9-1c-0.9-0.7-1.8-1.5-2.8-2.1c-0.5-0.3-1.2-0.6-1.8-0.9c-0.2-0.1-0.5-0.2-0.7-0.3C23,33,22.8,32.5,22.6,32
			l-1.4-3c-0.3-0.7-0.5-1.3-0.9-1.9c-1.6-2.7-3.9-4.9-6.6-6.4c-0.6-0.4-1.4-0.5-2.2-0.7l-1.3-0.1c-0.3-0.1-0.5-0.4-0.8-0.6
			c-1-0.6-3.5-1.9-4.1-0.2c-0.5,1.1,0.7,2.2,1.1,2.8c0.3,0.4,0.7,0.8,0.9,1.3c0.1,0.3,0.2,0.6,0.3,0.9l0.9,2.3
			c0.2,0.4,0.4,0.7,0.6,1.1c0.1,0.2,0.4,0.3,0.4,0.6c-0.2,0.3-0.3,0.9-0.4,1.3c-0.6,1.9-0.4,4.3,0.5,5.7c0.3,0.4,1,1.4,1.8,1
			c0.8-0.3,0.6-1.3,0.8-2.1c0.1-0.2,0-0.3,0.1-0.5v0l0.7,1.4c0.5,0.8,1.5,1.7,2.2,2.3c0.4,0.3,0.7,0.8,1.3,1v-0.1h-0.1
			c-0.1-0.2-0.3-0.2-0.4-0.3c-0.3-0.3-0.6-0.7-0.9-1c-0.7-1-1.4-2-1.9-3.1c-0.3-0.5-0.5-1.1-0.7-1.6c-0.1-0.2-0.1-0.5-0.3-0.6
			c-0.3,0.4-0.6,0.7-0.8,1.2c-0.3,0.7-0.4,1.6-0.5,2.6c-0.6-0.1-0.8-0.7-1-1.1c-0.5-1.2-0.6-3.2-0.2-4.6c0.1-0.4,0.6-1.5,0.4-1.8
			c-0.1-0.3-0.4-0.5-0.6-0.8c-0.2-0.3-0.5-0.7-0.6-1.1c-0.3-1-0.6-2-1-3c-0.2-0.4-0.6-0.9-0.9-1.3c-0.3-0.5-0.7-0.8-0.9-1.3
			C6,20,5.9,19.6,6,19.4c0-0.1,0.1-0.2,0.2-0.2c0.2-0.2,0.9,0.1,1.1,0.2C8,19.6,8.5,19.9,9,20.2c0.2,0.2,0.5,0.5,0.8,0.6h0.4
			c0.5,0.1,1.2,0,1.7,0.2c0.9,0.3,1.7,0.7,2.5,1.2c2.3,1.4,4.1,3.5,5.3,5.8c0.2,0.4,0.3,0.7,0.5,1.2l1.2,2.5
			c0.4,0.8,0.7,1.6,1.2,2.3c0.3,0.4,1.3,0.5,1.7,0.7c0.3,0.2,0.9,0.3,1.2,0.5l1.7,1.2C27.4,36.5,28.2,37,28.3,37.3L28.3,37.3z"/>
		<path class="st32" d="M10.9,22.5c-0.3,0-0.5,0-0.7,0.1v0h0c0.1,0.3,0.4,0.5,0.5,0.7l0.4,0.8l0,0c0.2-0.2,0.4-0.4,0.4-0.9
			c-0.1-0.1-0.1-0.2-0.2-0.4C11.3,22.7,11,22.6,10.9,22.5L10.9,22.5z"/>
	</g>
	<path class="st33" d="M70.1,37h8.5c1,0,1.9-0.2,2.7-0.6c1.3-0.6,1.9-1.4,1.9-2.4v-2.2c0-0.8-0.7-1.6-2.1-2.2
		c-0.8-0.3-1.6-0.4-2.5-0.4H75c-1.2,0-1.8-0.4-1.9-1.1c0-0.1,0-0.2,0-0.3v-1.3c0-0.1,0-0.2,0-0.2c0.2-0.6,0.5-0.8,1.5-0.9h8.7v-2H75
		c-1.2,0-1.8,0.1-2.4,0.2c-1.7,0.5-2.5,1.4-2.5,2.9v1.7c0,1.3,1.5,2.5,4,2.7c0.3,0,0.6,0,0.9,0h3c0.1,0,0.2,0,0.3,0
		c0.9,0.1,1.3,0.2,1.6,0.6c0.2,0.2,0.2,0.3,0.2,0.5V34c0,0.2-0.1,0.5-0.4,0.7c-0.3,0.2-0.7,0.4-1.3,0.4c-0.1,0-0.2,0-0.3,0h-8.1
		L70.1,37z M101.5,33.6c0,2,1.5,3.1,4.5,3.4l0.9,0h7.7v-2h-7.7c-1.8,0-2.4-0.4-2.4-1.5V23.5h-3L101.5,33.6L101.5,33.6z M85,33.7v-7
		c0-1.8,1.3-2.9,3.7-3.2l0.8,0h5.6c0.3,0,0.5,0,0.8,0c2.5,0.3,3.7,1.4,3.7,3.2v7c0,1.4-0.5,2.2-1.7,2.7l2.9,2.6h-3.4L95,37l-2.4,0.1
		h-3.2c-0.5,0-1.1-0.1-1.8-0.2C85.9,36.3,84.9,35.3,85,33.7L85,33.7z M88.2,33.6c0,0.1,0,0.2,0.1,0.3c0.2,0.8,0.9,1.3,2.1,1.3H93
		l-2.4-2.2H94l2.1,1.9c0.4-0.2,0.7-0.5,0.7-0.9c0-0.1,0-0.2,0-0.3v-6.7c0-0.1,0-0.2,0-0.3c-0.2-0.8-0.9-1.2-2.1-1.2h-4.4
		c-1.3,0-2.2,0.6-2.2,1.5L88.2,33.6z"/>
	<path class="st34" d="M30.9,37.1h2.9V25.5l4.6,10.1c0.5,1.2,1.3,1.7,2.7,1.7s2.1-0.4,2.7-1.7l4.6-10.1v11.6h3V25.5
		c0-1.1-0.4-1.7-1.4-2c-2.2-0.7-3.7-0.1-4.4,1.4l-4.5,10l-4.3-10c-0.7-1.5-2.2-2.1-4.4-1.4c-0.9,0.3-1.4,0.8-1.4,2
		C30.9,25.5,30.9,37.1,30.9,37.1z M53.8,27.6h3V34c0,0.4,0.1,1.2,1.8,1.2h6.3v-7.6h3V38c0,2.6-3.2,3.1-4.7,3.2h-9.3v-2h9.3
		c1.9-0.2,1.7-1.1,1.7-1.5V37h-6.2c-2.9,0-4.8-1.3-4.8-2.8C53.8,34.2,53.8,27.6,53.8,27.6z"/>
</g>
<g id="PostgreSQL">
	<path class="st14" d="M33.1,30.6h-4.3v-4.3h4.5c1.7,0,2.5,0.7,2.5,2.2C35.8,29.9,34.9,30.6,33.1,30.6 M36.1,26.2
		c-0.6-0.5-1.4-0.8-2.5-0.8l-6.1,0v10.3h1.2v-4.4h4.6c1.1,0,2-0.3,2.7-0.8c0.7-0.5,1-1.3,1-2.2S36.7,26.8,36.1,26.2L36.1,26.2z
		 M44.1,33.6c-0.1,0.3-0.3,0.6-0.6,0.9c-0.6,0.6-1.4,0.8-2.5,0.8c-1,0-1.8-0.3-2.4-0.8s-0.8-1.3-0.8-2.1c0-0.4,0.1-0.8,0.2-1.2
		s0.4-0.7,0.6-0.9c0.6-0.5,1.4-0.8,2.4-0.8c2.2,0,3.3,1,3.3,2.9C44.3,32.9,44.3,33.3,44.1,33.6 M44.4,29.8c-0.7-0.7-1.9-1-3.4-1
		c-1.4,0-2.5,0.4-3.2,1.1c-0.7,0.6-1,1.5-1,2.6c0,1.1,0.4,1.9,1.1,2.6c0.4,0.4,0.8,0.6,1.4,0.8C39.7,36,40.3,36,41,36
		c1.5,0,2.6-0.3,3.4-1c0.7-0.6,1-1.5,1-2.6S45.1,30.5,44.4,29.8L44.4,29.8z M53.7,33.9c0,1.4-1.3,2.1-3.7,2.1c-0.8,0-1.4,0-1.9-0.1
		s-1-0.3-1.3-0.5c-0.3-0.2-0.4-0.4-0.6-0.7s-0.3-0.6-0.3-1h1.1c0,0.6,0.2,1,0.6,1.2c0.4,0.3,1.2,0.5,2.3,0.5c1.7,0,2.6-0.4,2.6-1.3
		c0-0.5-0.3-0.8-0.9-1c-0.1,0-0.8-0.1-2.1-0.3c-1.3-0.1-2.1-0.3-2.4-0.4c-0.7-0.3-1-0.8-1-1.5s0.3-1.2,0.9-1.6
		c0.3-0.1,0.7-0.3,1.1-0.3c0.4-0.1,1-0.1,1.6-0.1c2.4,0,3.6,0.7,3.6,2.3h-1.1c0-1.1-0.8-1.6-2.5-1.6c-0.8,0-1.5,0.1-1.9,0.3
		c-0.4,0.2-0.6,0.6-0.6,1c0,0.4,0.3,0.7,0.8,0.9c0.3,0.1,1.1,0.2,2.3,0.3c1.1,0.1,1.8,0.2,2.2,0.4C53.3,32.7,53.7,33.2,53.7,33.9
		L53.7,33.9z M58.2,35.8l-0.5,0.1l-0.3,0c-0.7,0-1.3-0.1-1.6-0.3c-0.3-0.2-0.5-0.6-0.5-1.1v-4.7H54V29h1.4v-2.2h1.1V29h1.8v0.7h-1.8
		v4.6c0,0.3,0.1,0.6,0.3,0.7c0.2,0.1,0.5,0.2,1,0.2c0.1,0,0.1,0,0.2,0c0.1,0,0.3,0,0.4-0.1L58.2,35.8L58.2,35.8z M65.5,34.3
		c-0.3,0.2-0.6,0.4-1,0.6S63.8,35,63.3,35C61.1,35,60,34,60,32.2c0-0.8,0.3-1.5,0.8-2s1.4-0.7,2.4-0.7s1.8,0.3,2.4,0.7
		s0.8,1.1,0.8,2C66.4,33.1,66.1,33.8,65.5,34.3 M67.4,29h-1.1v1.1c-0.5-0.5-0.8-0.8-1-0.9c-0.6-0.3-1.4-0.5-2.3-0.5
		c-1.4,0-2.4,0.3-3.1,0.9c-0.7,0.6-1,1.4-1,2.5c0,0.6,0.1,1,0.3,1.4c0.2,0.4,0.4,0.8,0.8,1.1c0.7,0.6,1.7,0.9,3.1,0.9
		c1.6,0,2.7-0.4,3.4-1.3v1.2c0,0.8-0.3,1.4-0.7,1.8S64.4,38,63.3,38c-1,0-1.8-0.1-2.2-0.4c-0.3-0.2-0.6-0.6-0.7-1.1h-1.1
		c0.1,0.8,0.4,1.3,1,1.7c0.6,0.4,1.6,0.6,3.1,0.6c2.8,0,4.1-1,4.1-3.1L67.4,29L67.4,29z M73.1,29.7c-0.3,0-0.6-0.1-0.9-0.1
		c-1.7,0-2.6,1-2.6,2.8v3.3h-1v-6.8h1.1v1.2h0c0.2-0.5,0.4-0.8,0.8-1.1c0.4-0.2,1-0.4,1.9-0.4h0.7L73.1,29.7L73.1,29.7z M74.1,32
		c0.1-0.8,0.4-1.4,0.9-1.8c0.3-0.3,0.7-0.4,1-0.6c0.4-0.1,0.8-0.2,1.3-0.2c0.9,0,1.7,0.3,2.3,0.8c0.6,0.5,0.9,1.1,0.9,1.7H74.1
		 M80.6,29.9c-0.4-0.4-0.8-0.6-1.4-0.8c-0.6-0.2-1.2-0.3-1.9-0.3c-1.4,0-2.4,0.3-3.2,1c-0.7,0.6-1.1,1.5-1.1,2.6
		c0,1.1,0.4,2,1.1,2.6c0.8,0.7,1.9,1.1,3.3,1.1c0.6,0,1.1-0.1,1.6-0.2c0.5-0.1,0.9-0.3,1.3-0.6c0.6-0.4,1-1,1.2-1.7h-1.1
		c-0.4,1.1-1.4,1.7-2.9,1.7c-1.1,0-2-0.3-2.5-0.8c-0.5-0.5-0.8-1.1-0.8-1.9h7.5C81.6,31.4,81.3,30.6,80.6,29.9L80.6,29.9z"/>
	<path class="st35" d="M92.7,33c0,2-1.6,3-4.9,3c-2,0-3.4-0.3-4.2-1c-0.7-0.6-1.1-1.4-1.1-2.6h1.3c0,1.9,1.3,2.8,4,2.8
		c1.3,0,2.2-0.2,2.8-0.6c0.5-0.3,0.7-0.9,0.7-1.6c0-0.7-0.3-1.2-1-1.5c-0.4-0.1-1.3-0.4-2.8-0.6c-1.8-0.3-3-0.6-3.6-0.8
		c-0.8-0.4-1.2-1.1-1.2-2.1c0-0.9,0.3-1.6,1-2.1c0.7-0.5,2-0.7,3.7-0.7c3.2,0,4.8,1.1,4.8,3.2H91c0-1.6-1.2-2.4-3.5-2.4
		c-1.2,0-2,0.1-2.6,0.5c-0.5,0.3-0.8,0.8-0.8,1.5c0,0.7,0.3,1.2,1,1.4c0.4,0.1,1.4,0.4,3.1,0.7c1.6,0.3,2.7,0.5,3.3,0.8
		C92.4,31.4,92.7,32,92.7,33L92.7,33z M103.3,34.1c-0.5,0.4-1,0.7-1.7,0.9c-0.6,0.2-1.3,0.3-2.1,0.3c-1.6,0-2.8-0.4-3.8-1.3
		c-1-0.8-1.4-2-1.4-3.4c0-1.4,0.5-2.6,1.4-3.4c1-0.8,2.2-1.2,3.8-1.2c1.6,0,2.8,0.4,3.7,1.3c0.5,0.4,0.8,0.9,1.1,1.4
		c0.2,0.6,0.3,1.2,0.3,1.9C104.8,32.1,104.3,33.2,103.3,34.1 M104,34.7c0.7-0.5,1.2-1.1,1.5-1.7s0.5-1.5,0.5-2.4
		c0-1.6-0.5-2.9-1.6-3.8c-0.6-0.5-1.3-0.9-2.1-1.2c-0.8-0.3-1.7-0.4-2.8-0.4c-2,0-3.6,0.5-4.7,1.5s-1.7,2.3-1.7,3.9
		c0,1.6,0.6,2.9,1.7,3.9c1.1,1,2.7,1.5,4.7,1.5c0.8,0,1.5,0,2-0.1c0.6-0.1,1.1-0.3,1.5-0.5l1.9,1.3l0.8-0.7L104,34.7L104,34.7z
		 M115.8,35.8h-8.9V25.5l1.2,0v9.5h7.7L115.8,35.8L115.8,35.8z"/>
	<path class="st36" d="M19.1,34.1c0.1-0.9,0.1-1,0.8-0.8h0.2c0.6,0,1.4-0.1,1.8-0.3c1-0.4,1.6-1,0.6-0.8c-2.2,0.4-2.4-0.3-2.4-0.3
		c2.3-2.9,3.3-6.6,2.5-7.5c-2.3-2.5-6.2-1.3-6.3-1.3h0c-0.4-0.1-0.9-0.1-1.5-0.1c-1,0-1.7,0.2-2.3,0.6c0,0-7-2.5-6.7,3.1
		c0.1,1.2,2,9,4.3,6.6c0.8-0.8,1.7-1.6,1.7-1.6c0.4,0.2,0.9,0.3,1.4,0.3l0,0c0,0.1,0,0.2,0,0.3c-0.6,0.6-0.4,0.7-1.6,0.9
		s-0.5,0.6,0,0.7c0.6,0.1,1.8,0.3,2.7-0.7l0,0.1c0.2,0.1,0.2,1.1,0.3,1.8c0,0.7,0.1,1.4,0.3,1.7c0.2,0.4,0.4,1.4,1.9,1.1
		C18,37.6,19,37.2,19.1,34.1"/>
	<path class="st37" d="M22.5,32.1c-2.2,0.4-2.4-0.3-2.4-0.3c2.3-2.9,3.3-6.6,2.5-7.5c-2.3-2.5-6.2-1.3-6.3-1.3h0
		c-0.4-0.1-0.9-0.1-1.5-0.1c-1,0-1.7,0.2-2.3,0.6c0,0-7-2.5-6.7,3.1c0.1,1.2,2,9,4.3,6.6c0.8-0.8,1.7-1.6,1.7-1.6
		c0.4,0.2,0.9,0.3,1.4,0.3l0,0c0,0.1,0,0.2,0,0.3c-0.6,0.6-0.4,0.7-1.6,0.9s-0.5,0.6,0,0.7c0.6,0.1,1.8,0.3,2.7-0.7l0,0.1
		c0.2,0.1,0.4,1,0.4,1.8s0,1.3,0.1,1.7c0.2,0.4,0.4,1.4,1.9,1.1c1.3-0.2,2-0.8,2.1-1.9c0.1-0.7,0.2-0.6,0.2-1.3l0.1-0.3
		c0.1-1,0-1.3,0.8-1.1h0.2c0.6,0,1.4-0.1,1.8-0.3C23,32.6,23.5,31.9,22.5,32.1L22.5,32.1z"/>
	<g>
		<g>
			<path class="st38" d="M14.4,32.7c-0.1,1.8,0,3.7,0.2,4.1c0.2,0.4,0.7,1.3,2.2,1c1.3-0.2,1.8-0.7,2-1.7c0.1-0.7,0.4-2.8,0.5-3.2
				 M12.5,23.4c0,0-7.1-2.4-6.7,3.1c0.1,1.2,2,9,4.3,6.6c0.8-0.8,1.6-1.6,1.6-1.6 M16.3,23c-0.3,0.1,3.9-1.3,6.3,1.3
				c0.8,0.9-0.1,4.6-2.5,7.5"/>
			<path class="st39" d="M20.2,31.8c0,0,0.1,0.6,2.4,0.3c1-0.2,0.4,0.5-0.6,0.8c-0.8,0.3-2.6,0.4-2.6,0
				C19.2,31.8,20.3,32.1,20.2,31.8c-0.1-0.3-0.5-0.5-0.8-1.1c-0.3-0.6-3.6-4.7,0.9-4.1c0.2,0-1.2-3.7-5.5-3.7s-4.1,4.4-4.1,4.4"/>
		</g>
		<g>
			<path class="st40" d="M13.2,32.2c-0.6,0.6-0.4,0.7-1.6,0.9c-1.2,0.2-0.5,0.6,0,0.7c0.6,0.1,1.8,0.3,2.7-0.7c0.3-0.3,0-0.8-0.4-1
				C13.7,32,13.5,31.9,13.2,32.2L13.2,32.2z"/>
			<path class="st38" d="M13.2,32.2c-0.1-0.3,0.1-0.7,0.3-1.2c0.3-0.7,1-1.4,0.4-3.6c-0.4-1.6-3.2-0.3-3.2-0.1c0,0.2,0.1,1.1,0,2.2
				c-0.2,1.4,1,2.5,2.5,2.4"/>
		</g>
	</g>
	<g>
		<path class="st41" d="M12.5,27.3c0,0.1,0.1,0.3,0.4,0.3c0.3,0,0.4-0.1,0.4-0.2s-0.1-0.1-0.4-0.2C12.7,27.1,12.5,27.2,12.5,27.3z"
			/>
		<path class="st42" d="M19.5,27.1c0,0.1-0.1,0.3-0.4,0.3c-0.3,0-0.4-0.1-0.4-0.2s0.1-0.1,0.4-0.2S19.4,27.1,19.5,27.1L19.5,27.1z"
			/>
	</g>
	<path class="st38" d="M20.3,26.6c0,0.6-0.1,1-0.2,1.6c0,0.9,0.5,2-0.3,3"/>
</g>
<g id="HTML" class="st0">
	<path class="st43" d="M45,17.5l2.7,30.4L60,51.1l12.3-3.2L75,17.5H45z M69.3,24.4l-0.2,2l-0.1,0.9H54.7l0.3,4.1h13.7l-0.1,0.8
		l-0.9,9.8l-0.1,0.6L60,44.5v0l0,0l-7.7-2l-0.5-5.8h3.8l0.3,2.9l4.2,1.1l0-0.1v0l4.2-0.9l0.4-4.6h-13l-0.9-10.4l-0.1-1.1h18.8
		L69.3,24.4L69.3,24.4z M47.8,8.9h1.9v1.9h1.7V8.9h1.9v5.7h-1.9v-1.9h-1.7v1.9h-1.9C47.8,14.6,47.8,8.9,47.8,8.9z M55.9,10.8h-1.7
		V8.9h5.2v1.9h-1.7v3.8h-1.9C55.9,14.6,55.9,10.8,55.9,10.8z M60.3,8.9h2l1.2,2l1.2-2h2v5.7h-1.9v-2.8l-1.3,2h0l-1.3-2v2.8h-1.9
		L60.3,8.9L60.3,8.9z M67.6,8.9h1.9v3.8h2.7v1.9h-4.6C67.6,14.6,67.6,8.9,67.6,8.9z"/>
</g>
<g id="CSS" class="st0">
	<path class="st44" d="M45,17.2l2.7,30.6L60,51.2l12.3-3.4L75,17.2C75,17.2,45,17.2,45,17.2z M68.4,34.3l-0.8,7.4l0,0.6L60,44.5v0
		l0,0l-7.7-2.1l-0.5-5.9h3.8l0.3,3l4.2,1.1l0,0v0l4.2-1.2l0.4-4.9h-8.8l-0.1-0.8l-0.2-1.9l-0.1-1H65l0.3-3.7H50.9l-0.1-0.9l-0.2-2
		L50.6,23h18.8l-0.1,1.1L68.4,34.3 M68.5,13.3L66,10.5h2.4V8.8H63v1.5l2.8,2.6H63v1.7h5.4V13.3z M62,13.3l-2.3-2.8H62V8.8H57v1.5
		l2.6,2.6H57v1.7H62V13.3z M55.9,12.8h-2.7v-2.4h2.7V8.8h-4.7v5.8h4.7V12.8z"/>
</g>
<g id="SASS" class="st0">
	<path class="st45" d="M77.7,31c-1.7,0-3.3,0.4-4.5,1.1c-0.5-0.9-0.9-1.7-1-2.3c-0.1-0.7-0.2-1.1-0.1-2c0.1-0.8,0.6-2,0.6-2.1
		c0-0.1-0.1-0.5-1.1-0.5c-1,0-1.9,0.2-2,0.5c-0.2,0.5-0.3,1-0.4,1.5c-0.2,0.9-2,4.2-3.1,5.9c-0.3-0.7-0.6-1.3-0.7-1.7
		c-0.1-0.7-0.2-1.1-0.1-2c0.1-0.8,0.6-2,0.6-2.1c0-0.1-0.1-0.5-1.1-0.5c-1,0-1.9,0.2-2,0.5c-0.1,0.3-0.2,0.9-0.4,1.5
		c-0.2,0.6-2.6,6-3.3,7.5c-0.3,0.7-0.6,1.3-0.8,1.7c-0.2,0.4,0,0,0,0.1L58,38.2v0c-0.1,0.2-0.3,0.5-0.4,0.5c0,0-0.1-0.7,0-1.6
		c0.4-1.9,1.2-4.8,1.2-4.9c0,0,0.2-0.6-0.6-0.8c-0.7-0.3-1,0.2-1,0.2s-0.1,0.2-0.1,0.2s0.8-3.3-1.5-3.3c-1.4,0-3.4,1.6-4.4,3l-5,2.7
		L46.2,34c-2.8-3-8-5.1-7.7-9.1c0.1-1.5,0.6-5.3,9.9-9.9c7.6-3.8,13.8-2.8,14.8-0.4c1.5,3.3-3.3,9.5-11.2,10.4c-3,0.3-4.6-0.8-5-1.3
		c-0.4-0.5-0.5-0.5-0.6-0.4c-0.3,0.1-0.1,0.5,0,0.8c0.2,0.6,1.2,1.7,2.9,2.3c1.5,0.5,5,0.7,9.3-0.9c4.8-1.9,8.6-7.1,7.5-11.4
		c-1.1-4.4-8.4-5.9-15.3-3.4c-4.1,1.5-8.6,3.8-11.8,6.7c-3.8,3.6-4.4,6.7-4.2,8c0.9,4.6,7.2,7.6,9.8,9.8l-0.4,0.2
		c-1.3,0.6-6.1,3.2-7.3,5.8c-1.4,3,0.2,5.2,1.3,5.5c3.3,0.9,6.6-0.7,8.4-3.4c1.8-2.7,1.6-6.2,0.8-7.8l0-0.1l1-0.6
		c0.6-0.4,1.2-0.7,1.8-1c-0.3,0.8-0.5,1.9-0.7,3.3c-0.1,1.7,0.6,3.9,1.5,4.8c0.4,0.4,0.9,0.4,1.2,0.4c1.1,0,1.6-0.9,2.1-2
		c0.7-1.3,1.3-2.8,1.3-2.8s-0.7,4.1,1.3,4.1c0.7,0,1.5-0.9,1.8-1.4v0c0,0,0,0,0.1-0.1c0.1-0.1,0.1-0.2,0.1-0.2v0
		c0.3-0.5,0.9-1.7,1.9-3.6c1.3-2.5,2.5-5.6,2.5-5.6s0.1,0.8,0.5,2c0.2,0.7,0.7,1.6,1,2.3l-0.5,0.6l0,0c-0.2,0.3-0.5,0.6-0.8,1
		c-1,1.2-2.2,2.5-2.3,2.9c-0.2,0.5-0.1,0.8,0.2,1.1c0.3,0.2,0.7,0.2,1.2,0.2c0.9-0.1,1.5-0.3,1.8-0.4c0.6-0.2,1.1-0.5,1.6-0.8
		c1-0.7,1.6-1.7,1.5-3.1c0-0.8-0.3-1.5-0.6-2.2l0.3-0.4c1.5-2.3,2.7-4.7,2.7-4.7s0.1,0.8,0.5,2c0.2,0.6,0.6,1.3,0.9,2
		c-1.4,1.2-2.4,2.5-2.7,3.4c-0.6,1.7-0.1,2.4,0.7,2.6c0.4,0.1,0.9-0.1,1.3-0.3c0.5-0.2,1.1-0.4,1.7-0.9c1-0.7,1.9-1.7,1.9-3.1
		c0-0.6-0.2-1.2-0.4-1.8c1.2-0.5,2.8-0.8,4.8-0.6c4.3,0.5,5.2,3.2,5,4.4c-0.2,1.1-1.1,1.8-1.4,2c-0.3,0.2-0.4,0.3-0.4,0.4
		c0,0.2,0.2,0.2,0.4,0.2c0.4-0.1,2.3-0.9,2.4-3C84.8,33.9,82.2,30.9,77.7,31L77.7,31z M44.2,42.3c-1.4,1.6-3.5,2.2-4.3,1.7
		c-0.9-0.5-0.6-2.9,1.2-4.5c1.1-1,2.5-2,3.4-2.5l0.9-0.5c0.1,0,0.1-0.1,0.1-0.1c0.1,0,0.1-0.1,0.2-0.1
		C46.3,38.5,45.7,40.6,44.2,42.3L44.2,42.3z M54.7,35.1c-0.5,1.2-1.6,4.4-2.2,4.2c-0.5-0.1-0.9-2.5-0.1-4.9c0.4-1.2,1.2-2.6,1.7-3.1
		c0.8-0.9,1.6-1.2,1.9-0.8C56.2,31,55,34.3,54.7,35.1L54.7,35.1z M63.3,39.3c-0.2,0.1-0.4,0.2-0.5,0.1c-0.1,0,0.1-0.2,0.1-0.2
		s1.1-1.2,1.5-1.7l0.8-1.1v0.1C65.3,37.9,63.9,38.9,63.3,39.3L63.3,39.3z M70,37.7c-0.2-0.1-0.1-0.5,0.4-1.6
		c0.2-0.4,0.7-1.2,1.5-1.9c0.1,0.3,0.2,0.6,0.1,0.8C72,36.8,70.8,37.4,70,37.7L70,37.7z"/>
</g>
</svg>
