<?xml version="1.0" encoding="utf-8"?>
<!-- Generator: Adobe Illustrator 25.0.0, SVG Export Plug-In . SVG Version: 6.00 Build 0)  -->
<svg version="1.1" id="Languages" xmlns="http://www.w3.org/2000/svg" xmlns:xlink="http://www.w3.org/1999/xlink" x="0px" y="0px"
	 viewBox="0 0 120 60" style="enable-background:new 0 0 120 60;" xml:space="preserve">
<style type="text/css">
	.st0{fill:#00D8FF;}
	.st1{fill-rule:evenodd;clip-rule:evenodd;fill:#00D8FF;}
	.st2{display:none;}
	.st3{display:inline;fill:#83CD29;}
	.st4{display:inline;fill:#404137;}
	.st5{display:inline;fill:#1677C7;}
	.st6{display:inline;fill:#F7DF1E;}
	.st7{display:inline;}
	.st8{display:inline;fill:#FFFFFF;}
	.st9{display:inline;fill:#F34F29;}
	.st10{display:inline;fill:none;}
	.st11{fill:#FFC24A;}
	.st12{fill:#FFA712;}
	.st13{fill:#F4BD62;}
	.st14{fill:#FFA50E;}
	.st15{fill:#F6820C;}
	.st16{fill:#FDE068;}
	.st17{fill:#FCCA3F;}
	.st18{fill:#EEAB37;}
	.st19{display:inline;fill:#63666A;}
	.st20{display:inline;fill:#599636;}
	.st21{display:inline;fill:#6CAC48;}
	.st22{display:inline;fill:#C2BFBF;}
	.st23{fill:#47474A;}
	.st24{fill:#C2BFBF;}
	.st25{fill-rule:evenodd;clip-rule:evenodd;fill:#00678C;}
	.st26{display:inline;fill-rule:evenodd;clip-rule:evenodd;fill:#CE8B2C;}
	.st27{display:inline;fill-rule:evenodd;clip-rule:evenodd;fill:#00678C;}
	.st28{display:inline;fill:#367FAF;}
	.st29{display:inline;fill:#FFFFFF;stroke:#FFFFFF;stroke-width:4.108;}
	.st30{display:inline;fill:#417BA2;}
	.st31{fill:none;stroke:#FFFFFF;stroke-width:1.369;stroke-linecap:round;stroke-linejoin:round;}
	.st32{fill:none;stroke:#FFFFFF;stroke-width:1.369;stroke-linecap:round;stroke-linejoin:bevel;}
	.st33{fill:none;stroke:#FFFFFF;stroke-width:1.369;stroke-linejoin:round;}
	.st34{fill:#FFFFFF;stroke:#FFFFFF;stroke-width:0.456;}
	.st35{fill:#FFFFFF;stroke:#FFFFFF;stroke-width:0.228;}
	.st36{display:inline;fill:none;stroke:#FFFFFF;stroke-width:1.369;stroke-linecap:round;stroke-linejoin:round;}
	.st37{display:inline;fill:#E44D26;}
	.st38{display:inline;fill:#1572B6;}
	.st39{display:inline;fill:#CF649A;}
	.st40{clip-path:url(#SVGID_2_);}
	.st41{fill:url(#path3462_1_);}
	.st42{clip-path:url(#SVGID_4_);}
	.st43{fill:#777BB3;}
	.st44{clip-path:url(#SVGID_6_);}
	.st45{fill:#FFFFFF;}
</style>
<g id="React_JS">
	<g>
		<path class="st0" d="M48.1,31.9c0-2.6-3.3-5.2-8.4-6.7c1.2-5.2,0.7-9.3-1.6-10.6c-0.5-0.3-1.1-0.5-1.8-0.5v1.8
			c0.4,0,0.7,0.1,0.9,0.2c1.1,0.6,1.6,3.1,1.2,6.2c-0.1,0.8-0.2,1.6-0.4,2.4c-1.6-0.4-3.3-0.7-5.2-0.9c-1.1-1.5-2.2-2.9-3.4-4.1
			c2.7-2.5,5.2-3.8,6.8-3.8V14c-2.2,0-5.2,1.6-8.1,4.4c-3-2.8-5.9-4.3-8.1-4.3v1.8c1.7,0,4.2,1.3,6.8,3.8c-1.1,1.2-2.3,2.6-3.4,4.1
			c-1.8,0.2-3.6,0.5-5.2,0.9c-0.2-0.8-0.3-1.6-0.4-2.4c-0.4-3.1,0.1-5.5,1.2-6.2c0.2-0.1,0.6-0.2,0.9-0.2v-1.8
			c-0.7,0-1.3,0.1-1.8,0.5c-2.3,1.3-2.8,5.4-1.6,10.6c-5.1,1.6-8.4,4.1-8.4,6.7c0,2.6,3.3,5.2,8.4,6.7c-1.2,5.2-0.7,9.3,1.6,10.6
			c0.5,0.3,1.1,0.5,1.8,0.5c2.2,0,5.2-1.6,8.1-4.4c3,2.8,5.9,4.3,8.1,4.3c0.7,0,1.3-0.1,1.8-0.5c2.3-1.3,2.8-5.4,1.6-10.6
			C44.8,37,48.1,34.5,48.1,31.9L48.1,31.9z M37.5,26.4c-0.3,1.1-0.7,2.1-1.1,3.2c-0.3-0.7-0.7-1.3-1.1-2c-0.4-0.7-0.8-1.3-1.2-1.9
			C35.3,25.9,36.5,26.2,37.5,26.4L37.5,26.4z M33.8,35.1c-0.6,1.1-1.3,2.1-2,3.1c-1.2,0.1-2.4,0.2-3.7,0.2c-1.2,0-2.5-0.1-3.7-0.2
			c-0.7-1-1.3-2-2-3.1c-0.6-1.1-1.2-2.2-1.7-3.2c0.5-1.1,1.1-2.2,1.7-3.3c0.6-1.1,1.3-2.1,2-3.1c1.2-0.1,2.4-0.2,3.7-0.2
			c1.2,0,2.5,0.1,3.7,0.2c0.7,1,1.3,2,2,3.1c0.6,1.1,1.2,2.2,1.7,3.2C35,32.9,34.4,34,33.8,35.1L33.8,35.1z M36.4,34
			c0.4,1.1,0.8,2.2,1.1,3.2c-1.1,0.3-2.2,0.5-3.4,0.7c0.4-0.6,0.8-1.3,1.2-1.9C35.7,35.4,36.1,34.7,36.4,34L36.4,34z M28.2,42.7
			c-0.8-0.8-1.5-1.7-2.3-2.6c0.7,0,1.5,0.1,2.2,0.1c0.8,0,1.5,0,2.3-0.1C29.7,41.1,28.9,42,28.2,42.7z M22.1,37.9
			c-1.2-0.2-2.3-0.4-3.3-0.6c0.3-1.1,0.7-2.1,1.1-3.2c0.3,0.7,0.7,1.3,1.1,2S21.7,37.3,22.1,37.9z M28.1,21c0.8,0.8,1.5,1.7,2.3,2.6
			c-0.7,0-1.5-0.1-2.2-0.1c-0.8,0-1.5,0-2.3,0.1C26.6,22.6,27.4,21.8,28.1,21z M22.1,25.8c-0.4,0.6-0.8,1.3-1.2,1.9
			c-0.4,0.7-0.7,1.3-1.1,2c-0.4-1.1-0.8-2.2-1.1-3.2C19.8,26.2,20.9,25.9,22.1,25.8L22.1,25.8z M14.7,36c-2.9-1.2-4.8-2.8-4.8-4.1
			c0-1.3,1.9-2.9,4.8-4.1c0.7-0.3,1.5-0.6,2.3-0.8c0.5,1.6,1.1,3.3,1.8,5c-0.8,1.7-1.4,3.4-1.8,4.9C16.2,36.6,15.4,36.3,14.7,36
			L14.7,36z M19.1,47.6c-1.1-0.6-1.6-3.1-1.2-6.2c0.1-0.8,0.2-1.6,0.4-2.4c1.6,0.4,3.3,0.7,5.2,0.9c1.1,1.5,2.2,2.9,3.4,4.1
			c-2.7,2.5-5.2,3.8-6.8,3.8C19.6,47.8,19.3,47.8,19.1,47.6L19.1,47.6z M38.4,41.4c0.4,3.1-0.1,5.5-1.2,6.2
			c-0.2,0.1-0.6,0.2-0.9,0.2c-1.7,0-4.2-1.3-6.8-3.8c1.1-1.2,2.3-2.6,3.4-4.1c1.8-0.2,3.6-0.5,5.2-0.9
			C38.2,39.9,38.3,40.7,38.4,41.4z M41.6,36c-0.7,0.3-1.5,0.6-2.3,0.8c-0.5-1.6-1.1-3.3-1.8-5c0.8-1.7,1.4-3.4,1.8-4.9
			c0.8,0.3,1.6,0.5,2.3,0.8c2.9,1.2,4.8,2.8,4.8,4.1C46.3,33.1,44.5,34.8,41.6,36L41.6,36z"/>
		<circle class="st0" cx="28.1" cy="31.9" r="3.7"/>
	</g>
	<path class="st1" d="M66.8,39.6l-4.6-6.9c2.3-0.2,4.4-1.9,4.4-5c0-3.1-2.2-5.1-5.3-5.1h-6.8v17h2.1v-6.8h3.4l4.3,6.8L66.8,39.6z
		 M61,30.9h-4.5v-6.5H61c2,0,3.4,1.3,3.4,3.2S63,30.9,61,30.9L61,30.9z M74.7,39.9c2,0,3.7-0.7,4.9-1.9l-0.9-1.3
		c-1,1-2.4,1.6-3.8,1.6c-2.7,0-4.3-1.9-4.4-4.3h10v-0.5c0-3.7-2.2-6.6-5.9-6.6c-3.5,0-6.1,2.9-6.1,6.5C68.4,37.2,71,39.8,74.7,39.9
		L74.7,39.9z M78.5,32.6h-8.1c0.1-1.9,1.4-4.1,4-4.1C77.2,28.5,78.5,30.8,78.5,32.6z M93.1,39.6v-8.5c0-3-2.2-4.2-4.8-4.2
		c-2,0-3.6,0.7-4.9,2l0.9,1.3c1.1-1.2,2.3-1.7,3.8-1.7c1.8,0,3.1,0.9,3.1,2.6v2.2c-1-1.1-2.4-1.7-4.1-1.7c-2.1,0-4.3,1.3-4.3,4.1
		c0,2.7,2.2,4.1,4.3,4.1c1.7,0,3.1-0.6,4.1-1.7v1.4L93.1,39.6z M87.8,38.5c-1.8,0-3-1.1-3-2.7c0-1.6,1.3-2.7,3-2.7
		c1.4,0,2.7,0.5,3.4,1.5v2.3C90.5,38,89.2,38.5,87.8,38.5L87.8,38.5z M102.4,39.9c2.2,0,3.6-0.9,4.5-2.1l-1.3-1.2
		c-0.8,1.1-1.9,1.6-3.1,1.6c-2.6,0-4.3-2-4.3-4.8s1.6-4.8,4.3-4.8c1.3,0,2.3,0.5,3.1,1.6l1.3-1.2c-0.9-1.2-2.3-2.1-4.5-2.1
		c-3.7,0-6.2,2.8-6.2,6.5C96.2,37,98.7,39.8,102.4,39.9L102.4,39.9z M112.7,39.9c1.1,0,1.8-0.3,2.3-0.8l-0.6-1.4
		c-0.3,0.3-0.8,0.5-1.3,0.5c-0.8,0-1.3-0.7-1.3-1.6v-7.7h2.5v-1.7h-2.5v-3.4H110v3.4h-2v1.7h2V37C110,38.8,110.9,39.9,112.7,39.9
		L112.7,39.9z"/>
</g>
<g id="Node_JS" transform="matrix(.217946 0 0 .217946 4.120542 14.085548)" class="st2">
	<path class="st3" d="M471,52.1c-1.2,0-2.5,0.3-3.5,0.9l-33.9,19.6c-2.2,1.3-3.5,3.7-3.5,6.2v39.1c0,2.5,1.3,4.9,3.5,6.2l8.9,5.1
		c4.3,2.1,5.9,2.1,7.8,2.1c6.4,0,10-3.9,10-10.6V82c0-0.5-0.5-0.9-1-0.9H455c-0.5,0-1,0.4-1,0.9v38.6c0,3-3.1,6-8.1,3.5l-9.2-5.4
		c-0.3-0.2-0.6-0.5-0.6-0.9V78.7c0-0.4,0.2-0.7,0.6-0.9l33.8-19.5c0.3-0.2,0.7-0.2,1,0l33.8,19.5c0.3,0.2,0.6,0.6,0.6,0.9v39.1
		c0,0.4-0.2,0.8-0.5,0.9l-33.9,19.5c-0.3,0.2-0.7,0.2-1,0l-8.7-5.2c-0.3-0.2-0.6-0.1-0.9,0c-2.4,1.4-2.9,1.5-5.1,2.3
		c-0.6,0.2-1.4,0.5,0.3,1.4l11.4,6.7c1.1,0.6,2.3,0.9,3.5,0.9c1.3,0,2.4-0.3,3.5-0.9l33.9-19.5c2.2-1.3,3.5-3.7,3.5-6.2V78.7
		c0-2.5-1.3-4.9-3.5-6.2L474.6,53C473.5,52.3,472.3,52.1,471,52.1L471,52.1z M480.1,80c-9.6,0-15.4,4.1-15.4,10.9
		c0,7.4,5.7,9.4,15,10.4c11.1,1.1,11.9,2.7,11.9,4.9c0,3.8-3,5.4-10.1,5.4c-9,0-10.9-2.2-11.6-6.7c-0.1-0.5-0.4-0.9-0.9-0.9h-4.4
		c-0.6,0-1,0.5-1,1c0,5.7,3.1,12.4,17.9,12.4c10.7,0,16.9-4.2,16.9-11.6c0-7.3-5-9.3-15.4-10.7c-10.5-1.4-11.5-2.1-11.5-4.5
		c0-2,0.9-4.8,8.6-4.8c7,0,9.5,1.5,10.6,6.2c0.1,0.4,0.5,0.8,0.9,0.8h4.4c0.3,0,0.5-0.2,0.7-0.4c0.2-0.2,0.3-0.4,0.3-0.7
		C496.3,83.8,490.9,80,480.1,80L480.1,80z"/>
	<path class="st4" d="M271.8,0.9c-0.4,0-0.8,0.1-1.1,0.3c-0.7,0.4-1.1,1.1-1.1,1.9v55c0,0.5-0.3,1-0.7,1.3c-0.5,0.3-1,0.3-1.5,0
		l-9-5.2c-1.3-0.8-3-0.8-4.3,0l-35.9,20.7c-1.3,0.8-2.2,2.3-2.2,3.8v41.4c0,1.5,0.8,3,2.2,3.7l35.9,20.7c1.3,0.8,3,0.8,4.3,0
		l35.9-20.7c1.3-0.8,2.2-2.2,2.2-3.7V16.8c0-1.6-0.9-3-2.2-3.8L272.9,1.1C272.5,0.9,272.2,0.8,271.8,0.9L271.8,0.9z M40.8,52.6
		c-0.7,0-1.3,0.1-1.9,0.5L3,73.8c-1.3,0.8-2.2,2.2-2.2,3.7l0.1,55.6c0,0.8,0.4,1.5,1.1,1.9c0.7,0.4,1.5,0.4,2.2,0l21.3-12.2
		c1.4-0.8,2.2-2.2,2.2-3.7v-26c0-1.6,0.8-3,2.2-3.7l9.1-5.3c0.7-0.4,1.4-0.6,2.2-0.6c0.8,0,1.5,0.2,2.2,0.6l9.1,5.2
		c1.3,0.8,2.2,2.2,2.2,3.7v26c0,1.5,0.9,2.9,2.2,3.7L77.9,135c0.7,0.4,1.5,0.4,2.2,0c0.7-0.4,1.1-1.1,1.1-1.9l0.1-55.6
		c0-1.5-0.8-3-2.2-3.7L43.2,53.1c-0.6-0.4-1.3-0.5-1.9-0.5L40.8,52.6L40.8,52.6z M363.4,53.1c-0.8,0-1.5,0.2-2.2,0.6l-35.9,20.7
		c-1.3,0.8-2.2,2.2-2.2,3.7v41.4c0,1.6,0.9,3,2.2,3.7l35.6,20.3c1.3,0.8,2.9,0.8,4.2,0.1l21.6-12c0.7-0.4,1.1-1.1,1.1-1.9
		s-0.4-1.5-1.1-1.9l-36.1-20.7c-0.7-0.4-1.1-1.2-1.1-1.9v-13c0-0.8,0.5-1.5,1.1-1.9l11.2-6.5c0.7-0.4,1.5-0.4,2.2,0l11.2,6.5
		c0.7,0.4,1.1,1.1,1.1,1.9v10.2c0,0.8,0.4,1.5,1.1,1.9c0.7,0.4,1.5,0.4,2.2,0l21.5-12.5c1.3-0.8,2.2-2.2,2.2-3.7v-10
		c0-1.5-0.8-3-2.2-3.7l-35.7-20.7C364.9,53.3,364.2,53.1,363.4,53.1L363.4,53.1z M256.1,84c0.2,0,0.4,0,0.6,0.1l12.3,7.1
		c0.3,0.2,0.6,0.6,0.6,0.9v14.2c0,0.4-0.2,0.7-0.6,0.9l-12.3,7.1c-0.3,0.2-0.7,0.2-1.1,0l-12.3-7.1c-0.3-0.2-0.6-0.6-0.6-0.9V92.2
		c0-0.4,0.2-0.7,0.6-0.9l12.3-7.1C255.8,84.1,255.9,84,256.1,84L256.1,84L256.1,84z"/>
	<path class="st3" d="M148.7,52.9c-0.8,0-1.5,0.2-2.2,0.6l-35.9,20.6c-1.3,0.8-2.2,2.3-2.2,3.8v41.4c0,1.5,0.8,3,2.2,3.7l35.9,20.7
		c1.3,0.8,3,0.8,4.3,0l35.9-20.7c1.3-0.8,2.2-2.2,2.2-3.7V77.9c0-1.6-0.8-3-2.2-3.8l-35.9-20.6C150.2,53.1,149.4,52.9,148.7,52.9
		L148.7,52.9z M363.4,89.9c-0.1,0-0.3,0-0.4,0.1l-6.9,4c-0.3,0.1-0.4,0.4-0.4,0.7v7.9c0,0.3,0.2,0.6,0.4,0.7l6.9,4
		c0.2,0.1,0.5,0.1,0.8,0l6.9-4c0.3-0.1,0.4-0.4,0.4-0.7v-7.9c0-0.3-0.2-0.6-0.4-0.7l-6.9-4C363.6,89.8,363.5,89.9,363.4,89.9
		L363.4,89.9z"/>
</g>
<g id="TypeScript" class="st2">
	<path class="st5" d="M41,30v19h38V11H41V30z M64.1,42.1c0.2-0.1,0.8-0.5,1.4-0.8l1.1-0.6l0.2,0.3c0.3,0.5,1,1.2,1.4,1.4
		c1.2,0.6,2.9,0.5,3.7-0.2c0.3-0.3,0.5-0.7,0.5-1.1l0-0.1v0c0-0.4-0.1-0.6-0.3-1c-0.3-0.4-0.9-0.8-2.6-1.5c-2-0.8-2.8-1.4-3.6-2.2
		c-0.5-0.5-0.8-1.2-1-1.9l0,0c-0.1-0.5-0.2-1.9-0.1-2.4c0.4-1.9,1.8-3.2,3.9-3.6c0.7-0.1,2.2-0.1,2.9,0.1v0c1,0.2,1.7,0.7,2.4,1.4
		c0.3,0.4,0.9,1.1,0.9,1.2c0,0-1.6,1.2-2.6,1.8c0,0-0.2-0.1-0.3-0.4c-0.5-0.7-1-1-1.8-1.1c-1.2-0.1-1.9,0.5-1.9,1.5l0,0.1
		c0,0.2,0.1,0.5,0.2,0.7l0,0c0.3,0.5,0.7,0.8,2.2,1.5c2.7,1.2,3.9,1.9,4.6,3c0.8,1.2,1,3.2,0.4,4.6c-0.6,1.6-2.1,2.7-4.2,3
		c-0.7,0.1-2.2,0.1-2.9,0c-1.5-0.3-3-1-3.9-2c-0.3-0.4-1-1.4-1-1.5C63.8,42.2,63.9,42.1,64.1,42.1z M49.3,30.1c0-0.8,0-1.6,0-1.6
		c0,0,3,0,6.7,0l6.6,0l0,1.6l0,1.6h-4.9v14.1h-3.5V31.6h-4.9C49.3,31.6,49.3,30.1,49.3,30.1z"/>
</g>
<g id="JavaScript" class="st2">
	<path class="st6" d="M41,11h38v38H41V11z"/>
	<path class="st7" d="M51,42.8l2.9-1.8c0.6,1,1.1,1.8,2.3,1.8c1.2,0,1.9-0.5,1.9-2.2V28.4h3.6v12.2c0,3.7-2.2,5.4-5.3,5.4
		C53.5,46,51.8,44.5,51,42.8 M63.6,42.4l2.9-1.7c0.8,1.2,1.8,2.2,3.5,2.2c1.5,0,2.4-0.7,2.4-1.8c0-1.2-1-1.7-2.6-2.4L69,38.3
		c-2.6-1.1-4.3-2.5-4.3-5.4c0-2.7,2-4.7,5.2-4.7c2.3,0,3.9,0.8,5.1,2.9l-2.8,1.8c-0.6-1.1-1.3-1.5-2.3-1.5c-1,0-1.7,0.7-1.7,1.5
		c0,1.1,0.7,1.5,2.2,2.2l0.9,0.4c3,1.3,4.7,2.6,4.7,5.6c0,3.2-2.5,5-5.9,5C66.8,46,64.7,44.4,63.6,42.4"/>
</g>
<g id="Git" class="st2">
	<path class="st8" d="M67.8,24.6c-1.7,0-3.1,0.8-3.1,2.9c0,1.5,0.8,2.6,2.9,2.6c1.8,0,3-1,3-2.7C70.7,25.6,69.6,24.6,67.8,24.6z
		 M64.3,39.2c-0.4,0.5-0.8,1-0.8,1.7c0,1.3,1.6,1.7,3.8,1.7c1.9,0,4.4-0.1,4.4-1.9c0-1-1.2-1.1-2.8-1.2C69,39.6,64.3,39.2,64.3,39.2
		z M73.8,24.7c0.6,0.7,1.2,1.7,1.2,3.2c0,3.5-2.8,5.6-6.8,5.6c-1,0-1.9-0.1-2.5-0.3l-1,1.7l3.1,0.2c5.5,0.3,8.8,0.5,8.8,4.7
		c0,3.7-3.2,5.8-8.8,5.8c-5.8,0-7.9-1.5-7.9-4c0-1.4,0.6-2.2,1.7-3.3c-1-0.4-1.4-1.2-1.4-2.1c0-0.7,0.3-1.3,0.9-1.9
		c0.6-0.6,1.2-1.2,2-1.9c-1.5-0.8-2.8-2.4-2.8-4.8c0-3.7,2.4-6.2,7.3-6.2c1.3,0,2.2,0.1,2.9,0.3h6.2v2.7
		C76.7,24.5,73.8,24.7,73.8,24.7z M82.3,18.9c-1.8,0-2.9-1-2.9-2.9c0-1.8,1-2.8,2.9-2.8c1.9,0,2.9,1,2.9,2.8
		C85.2,17.8,84.2,18.9,82.3,18.9z M78.2,38.1v-2.5l1.6-0.2c0.4-0.1,0.5-0.1,0.5-0.6v-9.4c0-0.3-0.1-0.6-0.4-0.6l-1.7-0.6l0.3-2.6
		h6.6v13.2c0,0.5,0,0.6,0.5,0.6l1.6,0.2v2.5H78.2L78.2,38.1z M99.9,36.9c-1.3,0.6-3.4,1.3-5.2,1.3c-3.8,0-5.3-1.5-5.3-5.1v-8.3
		c0-0.2,0-0.3-0.3-0.3h-2.2v-2.8c2.8-0.3,3.9-1.7,4.3-5.2h3v4.6c0,0.2,0,0.3,0.3,0.3H99v3.2h-4.7v7.6c0,1.9,0.4,2.6,2.2,2.6
		c0.9,0,1.8-0.2,2.6-0.5L99.9,36.9z"/>
	<path class="st9" d="M52.6,28.5L38.1,13.9c-0.8-0.8-2.2-0.8-3,0l-3,3l3.8,3.8c0.9-0.3,1.9-0.1,2.6,0.6c0.7,0.7,0.9,1.7,0.6,2.6
		l3.7,3.7c0.9-0.3,1.9-0.1,2.6,0.6c1,1,1,2.6,0,3.6c-1,1-2.6,1-3.6,0c-0.8-0.8-1-1.9-0.6-2.8l-3.5-3.5v9.1c0.3,0.1,0.4,0.3,0.7,0.5
		c1,1,1,2.6,0,3.6c-1,1-2.6,1-3.6,0c-1-1-1-2.6,0-3.6c0.3-0.3,0.5-0.4,0.8-0.6v-9.2c-0.3-0.1-0.6-0.3-0.8-0.6
		c-0.8-0.8-1-1.9-0.6-2.8l-3.8-3.7l-10,10c-0.8,0.8-0.8,2.2,0,3L35,46c0.8,0.8,2.2,0.8,3,0l14.5-14.5C53.4,30.6,53.4,29.3,52.6,28.5
		z"/>
	<path class="st10" d="M19.9,13.2h80v33.4h-80V13.2z"/>
</g>
<g id="Firebase" class="st2">
	<g transform="matrix(.090203 0 0 .090203 11.921255 15.418666)" class="st7">
		<path class="st11" d="M-3.7,275.4l2.1-3L98.8,81.9l0.2-2L54.8-3.2c-3.7-7-14.1-5.2-15.4,2.6L-3.7,275.4z"/>
		<g>
			<path id="D" class="st12" d="M-2.5,273.1l1.6-3.1L98.5,81.5L54.3-2c-3.7-6.9-13-5.1-14.2,2.6L-2.5,273.1z"/>
		</g>
		<g class="st2">
			<g class="st7">
				<path id="D_1_" d="M-2.5,273.1l1.6-3.1L98.5,81.5L54.3-2c-3.7-6.9-13-5.1-14.2,2.6L-2.5,273.1z"/>
			</g>
		</g>
		<path class="st13" d="M131.3,142.8l33-33.8l-33-62.9c-3.1-6-11.9-6-15,0L98.7,79.7v2.9L131.3,142.8z"/>
		<g>
			<path id="C" class="st14" d="M130.7,141.4l32-32.8l-32-61c-3-5.8-10.4-6.4-13.4-0.6L99.5,81L99,82.8L130.7,141.4z"/>
		</g>
		<g class="st2">
			<g class="st7">
				<path id="C_1_" d="M130.7,141.4l32-32.8l-32-61c-3-5.8-10.4-6.4-13.4-0.6L99.5,81L99,82.8L130.7,141.4z"/>
			</g>
		</g>
		<path class="st15" d="M98.8,79.5L-3.7,275.4l1-1l3.5-1.4l128.5-128l1.6-4.4L98.8,79.5z"/>
		<path class="st16" d="M135.4,339.9l116.3-64.8L218.5,70.6c-1-6.4-8.9-8.9-13.5-4.3L-3.7,275.4l115.6,64.5
			C119.2,344,128.1,344,135.4,339.9"/>
		<path class="st17" d="M250.6,274.6l-33-202.9c-1-6.3-7.6-9-12.1-4.4L-2.4,275l114.3,63.9c7.2,4,16.1,4,23.3,0L250.6,274.6z"/>
		<path class="st18" d="M135.4,338c-7.3,4.1-16.2,4.1-23.5,0L-2.8,274.4l-0.9,1l115.6,64.5c7.3,4.1,16.2,4.1,23.5,0l116.3-64.8
			l-0.3-1.8L135.4,338z"/>
	</g>
	<path class="st19" d="M42.6,37.6h-1.8V23.7h8.1v1.7h-6.3v4.6h5.7v1.7h-5.7V37.6z M52,25.7c-0.2,0.2-0.5,0.4-0.9,0.4
		c-0.3,0-0.7-0.1-0.9-0.4c-0.2-0.2-0.4-0.6-0.4-0.9c0-0.3,0.1-0.7,0.4-0.9c0.2-0.2,0.6-0.4,0.9-0.4c0.3,0,0.7,0.1,0.9,0.4
		c0.2,0.2,0.4,0.6,0.4,0.9C52.4,25.1,52.3,25.4,52,25.7z M52,37.6h-1.8V28H52V37.6z M55.9,37.6h-1.8V28h1.7v1.6h0.1
		c0.2-0.5,0.6-0.9,1.1-1.3s1.1-0.5,1.6-0.5s1,0.1,1.3,0.2l-0.7,1.7c-0.2-0.1-0.5-0.1-1-0.1c-0.6,0-1.2,0.3-1.7,0.8s-0.7,1.2-0.7,2
		L55.9,37.6L55.9,37.6z M64.7,37.9c-1.4,0-2.6-0.5-3.5-1.4s-1.3-2.2-1.3-3.6c0-1.4,0.4-2.6,1.3-3.6s2-1.5,3.3-1.5
		c1.4,0,2.5,0.5,3.4,1.4s1.3,2.1,1.3,3.7l0,0.3h-7.5c0.1,1,0.4,1.7,1,2.3c0.6,0.5,1.3,0.8,2.1,0.8c1.3,0,2.1-0.5,2.6-1.6l1.6,0.7
		c-0.3,0.7-0.8,1.4-1.5,1.9S65.7,37.9,64.7,37.9L64.7,37.9z M67.2,31.7c0-0.5-0.3-1.1-0.7-1.6s-1.1-0.7-2-0.7
		c-0.7,0-1.2,0.2-1.7,0.6s-0.8,1-1,1.7L67.2,31.7L67.2,31.7z M75.6,37.9c-0.7,0-1.4-0.2-1.9-0.5s-1-0.7-1.3-1.2h-0.1v1.3h-1.7V23.7
		h1.8V28l-0.1,1.3h0.1c0.3-0.5,0.7-0.9,1.3-1.2s1.2-0.5,1.9-0.5c1.2,0,2.3,0.5,3.2,1.5s1.3,2.2,1.3,3.6s-0.4,2.6-1.3,3.6
		S76.8,37.8,75.6,37.9L75.6,37.9z M75.3,36.2c0.8,0,1.5-0.3,2.1-0.9s0.9-1.5,0.9-2.5s-0.3-1.9-0.9-2.5s-1.3-0.9-2.1-0.9
		c-0.8,0-1.6,0.3-2.1,0.9c-0.6,0.6-0.9,1.5-0.9,2.5s0.3,1.9,0.9,2.5S74.4,36.2,75.3,36.2L75.3,36.2z M84.8,37.9
		c-1,0-1.9-0.3-2.5-0.9s-1-1.4-1-2.3c0-1,0.4-1.8,1.2-2.4s1.8-0.9,3-0.9c1,0,1.9,0.2,2.6,0.6v-0.3c0-0.7-0.2-1.3-0.7-1.7
		s-1.1-0.6-1.8-0.6c-0.5,0-1,0.1-1.4,0.4c-0.4,0.2-0.7,0.6-0.9,1L81.6,30c0.2-0.6,0.7-1.1,1.3-1.6s1.5-0.7,2.6-0.7
		c1.2,0,2.2,0.4,3,1.1s1.2,1.7,1.2,3v5.7H88v-1.3h-0.1C87.2,37.3,86.2,37.9,84.8,37.9L84.8,37.9z M85.1,36.2c0.7,0,1.4-0.3,2-0.8
		s0.9-1.2,0.9-2c-0.5-0.4-1.3-0.6-2.3-0.6c-0.9,0-1.5,0.2-2,0.6s-0.7,0.8-0.7,1.3c0,0.5,0.2,0.8,0.6,1.1S84.6,36.2,85.1,36.2
		L85.1,36.2z M94.9,37.9c-1.1,0-1.9-0.3-2.6-0.8c-0.7-0.5-1.2-1.2-1.5-1.9l1.6-0.7c0.5,1.2,1.4,1.8,2.6,1.8c0.6,0,1-0.1,1.4-0.4
		s0.5-0.6,0.5-1c0-0.6-0.4-1-1.3-1.3l-1.9-0.5c-0.6-0.2-1.2-0.5-1.7-0.9s-0.8-1-0.8-1.7c0-0.8,0.4-1.5,1.1-2s1.6-0.8,2.7-0.8
		c0.8,0,1.6,0.2,2.2,0.6s1.1,0.9,1.4,1.6l-1.6,0.6c-0.3-0.8-1.1-1.3-2.2-1.3c-0.5,0-1,0.1-1.3,0.3s-0.5,0.5-0.5,0.9
		c0,0.5,0.4,0.9,1.3,1.1l1.9,0.4c0.9,0.2,1.6,0.6,2,1.1s0.6,1.1,0.6,1.7c0,0.9-0.3,1.6-1,2.1S96,37.9,94.9,37.9L94.9,37.9z
		 M104.4,37.9c-1.4,0-2.6-0.5-3.5-1.4s-1.3-2.2-1.3-3.6c0-1.4,0.4-2.6,1.3-3.6s2-1.5,3.3-1.5c1.4,0,2.5,0.5,3.4,1.4s1.3,2.1,1.3,3.7
		v0.3h-7.5c0.1,1,0.4,1.7,1,2.3c0.6,0.5,1.3,0.8,2.1,0.8c1.3,0,2.1-0.5,2.6-1.6l1.6,0.7c-0.3,0.7-0.8,1.4-1.5,1.9
		S105.5,37.9,104.4,37.9L104.4,37.9z M107,31.7c0-0.5-0.3-1.1-0.7-1.6s-1.1-0.7-2-0.7c-0.6,0-1.2,0.2-1.7,0.6c-0.5,0.4-0.8,1-1,1.7
		L107,31.7L107,31.7z"/>
</g>
<g id="MongoDB" class="st2">
	<path class="st20" d="M16.1,9.8l1.1,2c0.2,0.4,0.5,0.7,0.8,1c0.9,0.9,1.8,1.9,2.6,2.9c1.8,2.4,3.1,5.1,4,8c0.5,1.8,0.8,3.6,0.8,5.5
		c0.1,5.5-1.8,10.3-5.6,14.2c-0.6,0.6-1.3,1.2-2,1.7c-0.4,0-0.6-0.3-0.7-0.6c-0.3-0.5-0.5-1-0.6-1.6c-0.1-0.7-0.2-1.3-0.2-2v-0.3
		C16.3,40.6,16,9.9,16.1,9.8L16.1,9.8z"/>
	<path class="st21" d="M16.1,9.7c0-0.1-0.1,0-0.1,0c0,0.4-0.1,0.8-0.4,1.2c-0.3,0.4-0.6,0.7-1,1c-2,1.7-3.5,3.8-4.8,6.1
		c-1.6,3.1-2.5,6.5-2.8,10c-0.1,1.3,0.4,5.7,0.8,7c1.1,3.4,3.1,6.3,5.6,8.8c0.6,0.6,1.3,1.2,2,1.7c0.2,0,0.2-0.2,0.3-0.3
		c0.1-0.3,0.2-0.6,0.2-0.9c0.2-1.1,0.3-2.2,0.4-3.3L16.1,9.7L16.1,9.7z"/>
	<path class="st22" d="M17.2,46.5c0-0.5,0.3-0.9,0.6-1.4c-0.3-0.1-0.5-0.3-0.6-0.6c-0.1-0.2-0.2-0.5-0.3-0.7
		c-0.3-0.9-0.4-1.9-0.5-2.9v-0.6c-0.1,0.1-0.1,0.8-0.1,1c-0.1,1-0.2,2-0.4,3c-0.1,0.4-0.1,0.8-0.4,1.2c0,0,0,0.1,0,0.2
		c0.4,1.2,0.5,2.4,0.6,3.6v0.4c0,0.5,0,0.4,0.4,0.6c0.2,0.1,0.4,0.1,0.6,0.2c0.1,0,0.2-0.1,0.2-0.2l-0.1-0.7v-2
		C17.1,47.2,17.2,46.9,17.2,46.5L17.2,46.5z"/>
	<g transform="matrix(1.021124 0 0 1.021124 -4.376266 -1.845946)" class="st7">
		<path class="st23" d="M37.7,38.2v2.1c0,0.1,0,0.2,0,0.2c0,0.2,0.2,0.4,0.4,0.5c0.2,0.1,0.4,0.1,0.6,0.1c0.1,0,0.2,0.1,0.2,0.2
			c0,0.5,0,0.5-0.5,0.5c-1.1-0.1-2.1-0.1-3.2,0h-0.1c-0.3,0-0.4,0-0.4-0.3c0-0.1,0-0.1,0-0.2c0-0.1,0.1-0.2,0.2-0.2
			c0.2,0,0.4-0.1,0.6-0.1c0.3-0.1,0.5-0.2,0.5-0.5c0-0.3,0-0.6,0-1l0-3.7c0-0.2-0.1-0.4-0.3-0.5c-0.2-0.1-0.5-0.2-0.8-0.3
			C35,35,35,35,34.9,35c-0.2-0.1-0.2-0.3,0-0.4c0.1,0,0.2-0.1,0.2-0.1c0.8-0.1,1.6-0.3,2.4-0.6c0.2-0.1,0.2,0,0.2,0.1
			c0,0.1,0,0.2,0,0.3c0,0.2,0,0.4,0,0.5c0,0.1,0,0.1,0.1,0.2s0.1,0,0.2,0c0.3-0.2,0.6-0.4,0.9-0.6c0.5-0.2,0.9-0.5,1.5-0.5
			c0.6-0.1,1.2,0.1,1.7,0.5c0.2,0.2,0.4,0.4,0.5,0.6c0.1,0.2,0.2,0.2,0.3,0.1c0.5-0.4,1.1-0.7,1.7-1c0.6-0.3,1.2-0.3,1.9-0.1
			c0.6,0.2,1.1,0.7,1.3,1.3c0.2,0.5,0.3,1,0.3,1.5v3.7c0,0.2,0.1,0.4,0.3,0.5c0.3,0.1,0.5,0.2,0.8,0.2c0.2,0,0.2,0,0.2,0.2
			c0,0.5-0.1,0.5-0.5,0.5c-1.1-0.1-2.2-0.1-3.3,0c-0.2,0-0.2,0-0.2-0.2v-0.1c0-0.4,0-0.4,0.3-0.5L46,41c0.2-0.1,0.4-0.3,0.4-0.5l0-1
			l0-2.7c0-0.2-0.1-0.5-0.2-0.7C46,35.3,45.2,35,44.5,35c-0.5,0.1-1,0.3-1.5,0.6c-0.1,0.1-0.2,0.1-0.2,0.3c0.1,0.9,0,1.8,0.1,2.6
			v1.9c0,0.3,0.1,0.5,0.5,0.6l0.6,0.1c0.1,0,0.2,0.1,0.2,0.2v0.1c0,0.4,0,0.4-0.4,0.4c-1.1-0.1-2.2,0-3.3,0c-0.4,0-0.4,0-0.4-0.4
			c0-0.2,0-0.2,0.2-0.3l0.5-0.1c0.4-0.1,0.5-0.2,0.6-0.7l0-0.9l0-2.7c0-0.3-0.1-0.7-0.3-1c-0.3-0.5-0.7-0.8-1.3-0.8
			c-0.6,0-1.1,0.2-1.6,0.5c-0.3,0.2-0.5,0.4-0.5,0.8L37.7,38.2L37.7,38.2z M63.5,38.3v1.9c0,0.1,0,0.3,0,0.4c0,0.2,0.1,0.3,0.3,0.4
			c0.2,0.1,0.5,0.1,0.7,0.1c0.1,0,0.2,0.1,0.2,0.2v0.1c0,0.5-0.1,0.5-0.5,0.5c-1-0.1-2.1-0.1-3.1,0l-0.4,0c-0.1,0-0.1,0-0.1-0.1
			c0-0.2,0-0.4,0-0.6c0-0.1,0.1-0.1,0.2-0.1c0.2,0,0.4-0.1,0.6-0.1c0.3-0.1,0.5-0.2,0.5-0.6l0-1.1V36c0-0.2-0.1-0.4-0.3-0.5
			c-0.2-0.1-0.5-0.2-0.8-0.3c-0.1,0-0.2-0.1-0.2-0.1c-0.2-0.1-0.2-0.3,0-0.4c0.1-0.1,0.2-0.1,0.3-0.1c0.9-0.1,1.7-0.3,2.5-0.7
			c0.1,0,0.1,0,0.2,0.1s0.1,0.2,0,0.3l0,0.6c0,0.1,0,0.2,0,0.2c0.1,0.1,0.1-0.1,0.2-0.1c0.4-0.3,0.8-0.6,1.3-0.8
			c0.4-0.2,0.9-0.3,1.4-0.3c0.9,0.1,1.6,0.5,2,1.3c0.2,0.4,0.3,0.9,0.4,1.4l0,1l0,3c0,0.2,0.1,0.4,0.3,0.5c0.2,0.1,0.5,0.1,0.7,0.2
			c0.2,0,0.2,0.1,0.2,0.3v0.1C70,42,70,42,69.5,42c-1-0.1-2-0.1-3.1,0c-0.1,0-0.3,0-0.4,0c-0.1,0-0.1,0-0.2-0.1c0-0.2-0.1-0.4,0-0.5
			c0-0.1,0.1-0.1,0.2-0.1l0.6-0.1c0.2-0.1,0.3-0.2,0.4-0.4l0-0.4l0-2.9c0-0.3,0-0.7-0.1-1c-0.2-0.7-0.7-1.2-1.4-1.3
			c-0.6-0.1-1.2,0.1-1.7,0.4c-0.3,0.2-0.4,0.4-0.4,0.7L63.5,38.3C63.5,38.4,63.5,38.4,63.5,38.3L63.5,38.3z"/>
		<path class="st24" d="M103.5,34.5c-0.2-1-0.5-1.9-1.2-2.7c-0.6-0.7-1.3-1.2-2.1-1.6c-0.9-0.4-1.8-0.5-2.7-0.5c-0.4,0-5.6,0.1-6,0
			c-0.1,0-0.2,0-0.2,0.1c-0.1,0.1-0.1,0.2-0.2,0.3c-0.2,0.4-0.2,0.3,0.2,0.4c0.3,0.1,0.6,0.1,1,0.2c0.3,0.1,0.5,0.3,0.6,0.6
			c0,0.1,0.1,5,0.1,7.2l-0.1,1.6c0,0.1,0,0.2-0.1,0.4c-0.1,0.2-0.2,0.3-0.3,0.4c-0.2,0.1-0.4,0.1-0.6,0.2c-0.4,0-0.4,0.1-0.5,0.5
			l0,0.2c0,0.2,0,0.2,0.2,0.2l4.1,0l1.6,0l1.1-0.1c1.3-0.2,2.4-0.8,3.3-1.6c0.5-0.5,1-1.1,1.3-1.7c0.4-0.8,0.5-1.6,0.6-2.4
			C103.6,35.4,103.6,35,103.5,34.5L103.5,34.5z M101.5,36.4c-0.1,0.9-0.2,1.7-0.7,2.5c-0.6,1-1.4,1.7-2.5,1.9
			c-0.5,0.1-1,0.2-1.5,0.1c-0.4,0-0.7-0.1-1.1-0.2c-0.6-0.2-0.8-0.6-0.8-1.2l0-8.2c0-0.5,0.2-0.6,0.6-0.6c0.5,0,1.1,0,1.6,0
			c0.6,0.1,1.1,0.2,1.7,0.4c0.4,0.2,0.8,0.4,1.1,0.7c0.7,0.6,1.2,1.4,1.5,2.4C101.5,34.9,101.6,35.6,101.5,36.4L101.5,36.4z
			 M114.9,37.7c0-0.1,0-0.2,0-0.2c-0.1-0.8-0.5-1.3-1.1-1.8c-0.4-0.3-0.8-0.5-1.3-0.6c-0.1,0-0.2-0.1-0.2-0.1c0-0.1,0.1-0.1,0.1-0.1
			c0.3-0.1,0.5-0.3,0.8-0.5c0.4-0.4,0.7-0.8,0.8-1.3c0.1-0.3,0.1-0.6,0.1-0.9c0-0.7-0.4-1.4-1-1.8c-0.6-0.5-1.4-0.7-2.1-0.7
			c-1.5,0-3,0-4.4,0c-0.4,0-0.8,0-1.3,0c-0.1,0-0.2,0-0.3,0.1c-0.1,0.2-0.2,0.4-0.3,0.6c0,0.1,0,0.1,0.1,0.2l0.9,0.1
			c0.4,0.1,0.6,0.3,0.7,0.6c0,0.2,0,0.5,0,0.7l0,2.6l0,5.1c0,0.3,0,0.6-0.1,0.9c0,0.2-0.2,0.4-0.4,0.4c-0.3,0.1-0.5,0.2-0.8,0.2
			c-0.2,0-0.3,0.1-0.4,0.2c-0.1,0.1-0.1,0.3-0.1,0.4c0,0.2,0,0.2,0.2,0.2c0.1,0,4.6,0.1,5.5,0c0.5-0.1,1-0.1,1.5-0.3
			c0.9-0.3,1.7-0.7,2.3-1.3c0.5-0.5,0.8-1.2,0.8-2C114.9,38.1,114.9,37.9,114.9,37.7L114.9,37.7z M108.2,32.1l0-1.1
			c0-0.2,0.1-0.3,0.3-0.3c0.3-0.1,0.7,0,1,0c0.3,0,0.6,0.1,1,0.2c0.6,0.2,1.1,0.5,1.3,1.1c0.1,0.3,0.2,0.5,0.2,0.8
			c0,0.4,0,0.8-0.2,1.1c-0.2,0.5-0.6,0.8-1.1,0.9s-2.1,0.1-2.3,0.1c-0.2,0-0.2,0-0.2-0.2v-1.3C108.2,33,108.2,32.6,108.2,32.1
			L108.2,32.1z M112.7,39.5c-0.2,0.6-0.7,1-1.3,1.3c-0.3,0.1-0.7,0.2-1,0.2c-0.4,0-0.8,0-1.3-0.1c-0.6-0.1-0.8-0.7-0.9-1.1
			c-0.1-0.7,0-1.4,0-1.9v-1.8c0-0.2,0-0.3,0.3-0.3l1.3,0l0.9,0.1c0.6,0.1,1.2,0.4,1.6,0.8c0.4,0.4,0.5,0.8,0.6,1.4
			C112.9,38.6,112.9,39,112.7,39.5L112.7,39.5z"/>
		<path class="st23" d="M77.9,35.4l0.4,0.1c0.4,0,0.8-0.1,1-0.7c0.1-0.3,0.1-0.5,0-0.8c-0.1,0-0.1,0.1-0.2,0.1
			c-0.2,0.2-0.4,0.3-0.7,0.3c-0.5,0.1-1,0-1.5-0.1L76.3,34c-0.5-0.2-1-0.2-1.4-0.2c-0.7,0.1-1.4,0.3-2,0.6c-0.7,0.4-1.1,0.9-1.3,1.6
			c-0.1,0.4-0.1,0.9-0.1,1.3c0.1,1,0.7,1.7,1.6,2.1c0.1,0,0.1,0,0.2,0.1c0.1,0.1,0.1,0.1,0,0.2l-0.3,0.2l-0.8,0.5
			c-0.2,0.1-0.2,0.2-0.2,0.4c0.1,0.3,0.2,0.5,0.4,0.7c0.2,0.2,0.4,0.3,0.6,0.4c0.2,0.1,0.2,0.1,0,0.2l-0.8,0.6
			c-0.3,0.2-0.5,0.4-0.7,0.7c-0.3,0.3-0.4,0.8-0.3,1.2c0.1,0.5,0.4,0.9,0.7,1.2c0.4,0.3,0.8,0.6,1.3,0.7c0.8,0.2,1.6,0.2,2.3,0.1
			c1.1-0.2,2.1-0.7,2.9-1.5c0.5-0.6,0.8-1.2,0.9-2c0.1-0.9-0.6-1.8-1.5-2L77,40.9l-2.3-0.2c-0.2,0-0.5-0.1-0.7-0.2
			c-0.3-0.2-0.3-0.5-0.2-0.7c0.1-0.2,0.3-0.2,0.5-0.3l0.4,0c0.9-0.1,1.7-0.5,2.3-1.1c0.3-0.3,0.6-0.7,0.7-1.2c0.2-0.6,0.2-1.2,0-1.8
			C77.7,35.4,77.8,35.3,77.9,35.4L77.9,35.4z M74.6,42.2c0.1,0,0.2,0,0.2,0c0.6,0,1.2,0.1,1.7,0.2c0.2,0.1,0.4,0.1,0.5,0.2
			c0.5,0.3,0.8,0.8,0.7,1.4c-0.1,0.6-0.4,1.1-1,1.3c-0.4,0.2-0.8,0.3-1.2,0.3c-0.2,0-0.3,0-0.4,0c-0.5,0-0.9,0-1.4-0.2
			c-0.3-0.1-0.6-0.3-0.8-0.5c-0.5-0.5-0.7-1.4,0-2.1C73.5,42.4,74,42.1,74.6,42.2z M76.2,37.9c-0.3,0.7-0.9,0.9-1.5,0.8
			c-0.6-0.1-1-0.4-1.3-0.9c-0.4-0.7-0.4-1.4-0.2-2.2c0.2-0.6,0.5-1,1.1-1.1c0.8-0.1,1.5,0.1,1.9,0.9c0.2,0.4,0.3,0.8,0.3,1.5
			C76.3,37.2,76.3,37.6,76.2,37.9L76.2,37.9z M58.9,37c-0.1-0.7-0.4-1.4-0.9-2c-0.8-0.8-1.7-1.2-2.8-1.2c-0.9,0-1.8,0.3-2.6,0.8
			c-0.8,0.5-1.4,1.2-1.6,2.1c-0.2,0.8-0.2,1.6,0,2.4c0.5,2.2,2.1,3.1,4.1,3c0.6,0,1.1-0.2,1.7-0.5c0.8-0.4,1.4-1,1.8-1.7
			c0.3-0.6,0.5-1.3,0.4-2.1L58.9,37L58.9,37z M57,40c-0.2,0.6-0.8,1.1-1.4,1.1c-0.6,0.1-1.2-0.1-1.7-0.4c-0.4-0.3-0.7-0.6-0.9-1
			c-0.6-1.1-0.7-2.3-0.4-3.6c0.1-0.4,0.3-0.7,0.6-1c0.5-0.5,1.1-0.6,1.8-0.4c0.6,0.1,1.1,0.5,1.5,1c0.4,0.5,0.6,1.1,0.7,1.8
			c0.1,0.3,0.1,0.6,0.1,0.8C57.3,39,57.2,39.5,57,40L57,40z M88.8,37.1c-0.1-0.8-0.4-1.5-1-2.1c-0.7-0.8-1.7-1.1-2.8-1.2
			c-0.9,0-1.8,0.2-2.5,0.7c-0.9,0.5-1.5,1.3-1.7,2.3c-0.3,1.1-0.2,2.2,0.3,3.3c0.4,1,1.2,1.6,2.2,1.8c1.1,0.3,2.2,0.2,3.2-0.3
			c0.9-0.4,1.5-1.1,1.9-2c0.2-0.5,0.3-1.1,0.3-1.8C88.9,37.5,88.8,37.3,88.8,37.1L88.8,37.1z M86.9,39.8c-0.2,0.7-0.7,1.2-1.5,1.3
			c-0.6,0.1-1.1-0.1-1.6-0.4c-0.4-0.3-0.7-0.7-0.9-1.1c-0.2-0.5-0.4-1-0.4-1.5c-0.1-0.6-0.1-1.3,0.1-1.9c0-0.1,0.1-0.3,0.1-0.4
			c0.4-1,1.2-1.4,2.2-1.2c0.7,0.1,1.2,0.5,1.6,1.1c0.4,0.5,0.5,1.1,0.6,1.8c0,0.3,0.1,0.5,0,0.8C87.1,38.9,87.1,39.4,86.9,39.8
			L86.9,39.8z"/>
	</g>
</g>
<g id="MySQL" class="st2">
	<g class="st7">
		<path class="st25" d="M28.3,37.3c-1.4,0-2.4,0.1-3.3,0.5c-0.3,0.1-0.7,0.1-0.7,0.4c0.1,0.1,0.2,0.4,0.3,0.5c0.2,0.4,0.5,0.8,0.9,1
			l1.1,0.8c0.7,0.4,1.4,0.6,2.1,1.1c0.4,0.2,0.7,0.5,1,0.8c0.2,0.1,0.3,0.4,0.5,0.4v-0.1c-0.1-0.2-0.2-0.4-0.3-0.5l-0.5-0.5
			c-0.5-0.7-1.1-1.2-1.8-1.7c-0.5-0.4-1.7-0.9-2-1.5l0,0c0.4,0,0.8-0.2,1.2-0.3c0.6-0.2,1.1-0.1,1.7-0.3l0.8-0.2v-0.2
			c-0.3-0.3-0.5-0.7-0.9-1c-0.9-0.7-1.8-1.5-2.8-2.1c-0.5-0.3-1.2-0.6-1.8-0.9c-0.2-0.1-0.5-0.2-0.7-0.3C23,33,22.8,32.5,22.6,32
			l-1.4-3c-0.3-0.7-0.5-1.3-0.9-1.9c-1.6-2.7-3.9-4.9-6.6-6.4c-0.6-0.4-1.4-0.5-2.2-0.7l-1.3-0.1c-0.3-0.1-0.5-0.4-0.8-0.6
			c-1-0.6-3.5-1.9-4.1-0.2c-0.5,1.1,0.7,2.2,1.1,2.8c0.3,0.4,0.7,0.8,0.9,1.3c0.1,0.3,0.2,0.6,0.3,0.9l0.9,2.3
			c0.2,0.4,0.4,0.7,0.6,1.1c0.1,0.2,0.4,0.3,0.4,0.6c-0.2,0.3-0.3,0.9-0.4,1.3c-0.6,1.9-0.4,4.3,0.5,5.7c0.3,0.4,1,1.4,1.8,1
			c0.8-0.3,0.6-1.3,0.8-2.1c0.1-0.2,0-0.3,0.1-0.5v0l0.7,1.4c0.5,0.8,1.5,1.7,2.2,2.3c0.4,0.3,0.7,0.8,1.3,1v-0.1h-0.1
			c-0.1-0.2-0.3-0.2-0.4-0.3c-0.3-0.3-0.6-0.7-0.9-1c-0.7-1-1.4-2-1.9-3.1c-0.3-0.5-0.5-1.1-0.7-1.6c-0.1-0.2-0.1-0.5-0.3-0.6
			c-0.3,0.4-0.6,0.7-0.8,1.2c-0.3,0.7-0.4,1.6-0.5,2.6c-0.6-0.1-0.8-0.7-1-1.1c-0.5-1.2-0.6-3.2-0.2-4.6c0.1-0.4,0.6-1.5,0.4-1.8
			c-0.1-0.3-0.4-0.5-0.6-0.8c-0.2-0.3-0.5-0.7-0.6-1.1c-0.3-1-0.6-2-1-3c-0.2-0.4-0.6-0.9-0.9-1.3c-0.3-0.5-0.7-0.8-0.9-1.3
			C6,20,5.9,19.6,6,19.4c0-0.1,0.1-0.2,0.2-0.2c0.2-0.2,0.9,0.1,1.1,0.2C8,19.6,8.5,19.9,9,20.2c0.2,0.2,0.5,0.5,0.8,0.6h0.4
			c0.5,0.1,1.2,0,1.7,0.2c0.9,0.3,1.7,0.7,2.5,1.2c2.3,1.4,4.1,3.5,5.3,5.8c0.2,0.4,0.3,0.7,0.5,1.2l1.2,2.5
			c0.4,0.8,0.7,1.6,1.2,2.3c0.3,0.4,1.3,0.5,1.7,0.7c0.3,0.2,0.9,0.3,1.2,0.5l1.7,1.2C27.4,36.5,28.2,37,28.3,37.3L28.3,37.3z"/>
		<path class="st25" d="M10.9,22.5c-0.3,0-0.5,0-0.7,0.1v0h0c0.1,0.3,0.4,0.5,0.5,0.7l0.4,0.8l0,0c0.2-0.2,0.4-0.4,0.4-0.9
			c-0.1-0.1-0.1-0.2-0.2-0.4C11.3,22.7,11,22.6,10.9,22.5L10.9,22.5z"/>
	</g>
	<path class="st26" d="M70.1,37h8.5c1,0,1.9-0.2,2.7-0.6c1.3-0.6,1.9-1.4,1.9-2.4v-2.2c0-0.8-0.7-1.6-2.1-2.2
		c-0.8-0.3-1.6-0.4-2.5-0.4H75c-1.2,0-1.8-0.4-1.9-1.1c0-0.1,0-0.2,0-0.3v-1.3c0-0.1,0-0.2,0-0.2c0.2-0.6,0.5-0.8,1.5-0.9h8.7v-2H75
		c-1.2,0-1.8,0.1-2.4,0.2c-1.7,0.5-2.5,1.4-2.5,2.9v1.7c0,1.3,1.5,2.5,4,2.7c0.3,0,0.6,0,0.9,0h3c0.1,0,0.2,0,0.3,0
		c0.9,0.1,1.3,0.2,1.6,0.6c0.2,0.2,0.2,0.3,0.2,0.5V34c0,0.2-0.1,0.5-0.4,0.7c-0.3,0.2-0.7,0.4-1.3,0.4c-0.1,0-0.2,0-0.3,0h-8.1
		L70.1,37z M101.5,33.6c0,2,1.5,3.1,4.5,3.4l0.9,0h7.7v-2h-7.7c-1.8,0-2.4-0.4-2.4-1.5V23.5h-3L101.5,33.6L101.5,33.6z M85,33.7v-7
		c0-1.8,1.3-2.9,3.7-3.2l0.8,0h5.6c0.3,0,0.5,0,0.8,0c2.5,0.3,3.7,1.4,3.7,3.2v7c0,1.4-0.5,2.2-1.7,2.7l2.9,2.6h-3.4L95,37l-2.4,0.1
		h-3.2c-0.5,0-1.1-0.1-1.8-0.2C85.9,36.3,84.9,35.3,85,33.7L85,33.7z M88.2,33.6c0,0.1,0,0.2,0.1,0.3c0.2,0.8,0.9,1.3,2.1,1.3H93
		l-2.4-2.2H94l2.1,1.9c0.4-0.2,0.7-0.5,0.7-0.9c0-0.1,0-0.2,0-0.3v-6.7c0-0.1,0-0.2,0-0.3c-0.2-0.8-0.9-1.2-2.1-1.2h-4.4
		c-1.3,0-2.2,0.6-2.2,1.5L88.2,33.6z"/>
	<path class="st27" d="M30.9,37.1h2.9V25.5l4.6,10.1c0.5,1.2,1.3,1.7,2.7,1.7s2.1-0.4,2.7-1.7l4.6-10.1v11.6h3V25.5
		c0-1.1-0.4-1.7-1.4-2c-2.2-0.7-3.7-0.1-4.4,1.4l-4.5,10l-4.3-10c-0.7-1.5-2.2-2.1-4.4-1.4c-0.9,0.3-1.4,0.8-1.4,2
		C30.9,25.5,30.9,37.1,30.9,37.1z M53.8,27.6h3V34c0,0.4,0.1,1.2,1.8,1.2h6.3v-7.6h3V38c0,2.6-3.2,3.1-4.7,3.2h-9.3v-2h9.3
		c1.9-0.2,1.7-1.1,1.7-1.5V37h-6.2c-2.9,0-4.8-1.3-4.8-2.8C53.8,34.2,53.8,27.6,53.8,27.6z"/>
</g>
<g id="PostgreSQL" class="st2">
	<path class="st8" d="M33.1,30.6h-4.3v-4.3h4.5c1.7,0,2.5,0.7,2.5,2.2C35.8,29.9,34.9,30.6,33.1,30.6 M36.1,26.2
		c-0.6-0.5-1.4-0.8-2.5-0.8l-6.1,0v10.3h1.2v-4.4h4.6c1.1,0,2-0.3,2.7-0.8c0.7-0.5,1-1.3,1-2.2S36.7,26.8,36.1,26.2L36.1,26.2z
		 M44.1,33.6c-0.1,0.3-0.3,0.6-0.6,0.9c-0.6,0.6-1.4,0.8-2.5,0.8c-1,0-1.8-0.3-2.4-0.8s-0.8-1.3-0.8-2.1c0-0.4,0.1-0.8,0.2-1.2
		s0.4-0.7,0.6-0.9c0.6-0.5,1.4-0.8,2.4-0.8c2.2,0,3.3,1,3.3,2.9C44.3,32.9,44.3,33.3,44.1,33.6 M44.4,29.8c-0.7-0.7-1.9-1-3.4-1
		c-1.4,0-2.5,0.4-3.2,1.1c-0.7,0.6-1,1.5-1,2.6c0,1.1,0.4,1.9,1.1,2.6c0.4,0.4,0.8,0.6,1.4,0.8C39.7,36,40.3,36,41,36
		c1.5,0,2.6-0.3,3.4-1c0.7-0.6,1-1.5,1-2.6S45.1,30.5,44.4,29.8L44.4,29.8z M53.7,33.9c0,1.4-1.3,2.1-3.7,2.1c-0.8,0-1.4,0-1.9-0.1
		s-1-0.3-1.3-0.5c-0.3-0.2-0.4-0.4-0.6-0.7s-0.3-0.6-0.3-1h1.1c0,0.6,0.2,1,0.6,1.2c0.4,0.3,1.2,0.5,2.3,0.5c1.7,0,2.6-0.4,2.6-1.3
		c0-0.5-0.3-0.8-0.9-1c-0.1,0-0.8-0.1-2.1-0.3c-1.3-0.1-2.1-0.3-2.4-0.4c-0.7-0.3-1-0.8-1-1.5s0.3-1.2,0.9-1.6
		c0.3-0.1,0.7-0.3,1.1-0.3c0.4-0.1,1-0.1,1.6-0.1c2.4,0,3.6,0.7,3.6,2.3h-1.1c0-1.1-0.8-1.6-2.5-1.6c-0.8,0-1.5,0.1-1.9,0.3
		c-0.4,0.2-0.6,0.6-0.6,1c0,0.4,0.3,0.7,0.8,0.9c0.3,0.1,1.1,0.2,2.3,0.3c1.1,0.1,1.8,0.2,2.2,0.4C53.3,32.7,53.7,33.2,53.7,33.9
		L53.7,33.9z M58.2,35.8l-0.5,0.1l-0.3,0c-0.7,0-1.3-0.1-1.6-0.3c-0.3-0.2-0.5-0.6-0.5-1.1v-4.7H54V29h1.4v-2.2h1.1V29h1.8v0.7h-1.8
		v4.6c0,0.3,0.1,0.6,0.3,0.7c0.2,0.1,0.5,0.2,1,0.2c0.1,0,0.1,0,0.2,0c0.1,0,0.3,0,0.4-0.1L58.2,35.8L58.2,35.8z M65.5,34.3
		c-0.3,0.2-0.6,0.4-1,0.6S63.8,35,63.3,35C61.1,35,60,34,60,32.2c0-0.8,0.3-1.5,0.8-2s1.4-0.7,2.4-0.7s1.8,0.3,2.4,0.7
		s0.8,1.1,0.8,2C66.4,33.1,66.1,33.8,65.5,34.3 M67.4,29h-1.1v1.1c-0.5-0.5-0.8-0.8-1-0.9c-0.6-0.3-1.4-0.5-2.3-0.5
		c-1.4,0-2.4,0.3-3.1,0.9c-0.7,0.6-1,1.4-1,2.5c0,0.6,0.1,1,0.3,1.4c0.2,0.4,0.4,0.8,0.8,1.1c0.7,0.6,1.7,0.9,3.1,0.9
		c1.6,0,2.7-0.4,3.4-1.3v1.2c0,0.8-0.3,1.4-0.7,1.8S64.4,38,63.3,38c-1,0-1.8-0.1-2.2-0.4c-0.3-0.2-0.6-0.6-0.7-1.1h-1.1
		c0.1,0.8,0.4,1.3,1,1.7c0.6,0.4,1.6,0.6,3.1,0.6c2.8,0,4.1-1,4.1-3.1L67.4,29L67.4,29z M73.1,29.7c-0.3,0-0.6-0.1-0.9-0.1
		c-1.7,0-2.6,1-2.6,2.8v3.3h-1v-6.8h1.1v1.2h0c0.2-0.5,0.4-0.8,0.8-1.1c0.4-0.2,1-0.4,1.9-0.4h0.7L73.1,29.7L73.1,29.7z M74.1,32
		c0.1-0.8,0.4-1.4,0.9-1.8c0.3-0.3,0.7-0.4,1-0.6c0.4-0.1,0.8-0.2,1.3-0.2c0.9,0,1.7,0.3,2.3,0.8c0.6,0.5,0.9,1.1,0.9,1.7H74.1
		 M80.6,29.9c-0.4-0.4-0.8-0.6-1.4-0.8c-0.6-0.2-1.2-0.3-1.9-0.3c-1.4,0-2.4,0.3-3.2,1c-0.7,0.6-1.1,1.5-1.1,2.6
		c0,1.1,0.4,2,1.1,2.6c0.8,0.7,1.9,1.1,3.3,1.1c0.6,0,1.1-0.1,1.6-0.2c0.5-0.1,0.9-0.3,1.3-0.6c0.6-0.4,1-1,1.2-1.7h-1.1
		c-0.4,1.1-1.4,1.7-2.9,1.7c-1.1,0-2-0.3-2.5-0.8c-0.5-0.5-0.8-1.1-0.8-1.9h7.5C81.6,31.4,81.3,30.6,80.6,29.9L80.6,29.9z"/>
	<path class="st28" d="M92.7,33c0,2-1.6,3-4.9,3c-2,0-3.4-0.3-4.2-1c-0.7-0.6-1.1-1.4-1.1-2.6h1.3c0,1.9,1.3,2.8,4,2.8
		c1.3,0,2.2-0.2,2.8-0.6c0.5-0.3,0.7-0.9,0.7-1.6c0-0.7-0.3-1.2-1-1.5c-0.4-0.1-1.3-0.4-2.8-0.6c-1.8-0.3-3-0.6-3.6-0.8
		c-0.8-0.4-1.2-1.1-1.2-2.1c0-0.9,0.3-1.6,1-2.1c0.7-0.5,2-0.7,3.7-0.7c3.2,0,4.8,1.1,4.8,3.2H91c0-1.6-1.2-2.4-3.5-2.4
		c-1.2,0-2,0.1-2.6,0.5c-0.5,0.3-0.8,0.8-0.8,1.5c0,0.7,0.3,1.2,1,1.4c0.4,0.1,1.4,0.4,3.1,0.7c1.6,0.3,2.7,0.5,3.3,0.8
		C92.4,31.4,92.7,32,92.7,33L92.7,33z M103.3,34.1c-0.5,0.4-1,0.7-1.7,0.9c-0.6,0.2-1.3,0.3-2.1,0.3c-1.6,0-2.8-0.4-3.8-1.3
		c-1-0.8-1.4-2-1.4-3.4c0-1.4,0.5-2.6,1.4-3.4c1-0.8,2.2-1.2,3.8-1.2c1.6,0,2.8,0.4,3.7,1.3c0.5,0.4,0.8,0.9,1.1,1.4
		c0.2,0.6,0.3,1.2,0.3,1.9C104.8,32.1,104.3,33.2,103.3,34.1 M104,34.7c0.7-0.5,1.2-1.1,1.5-1.7s0.5-1.5,0.5-2.4
		c0-1.6-0.5-2.9-1.6-3.8c-0.6-0.5-1.3-0.9-2.1-1.2c-0.8-0.3-1.7-0.4-2.8-0.4c-2,0-3.6,0.5-4.7,1.5s-1.7,2.3-1.7,3.9
		c0,1.6,0.6,2.9,1.7,3.9c1.1,1,2.7,1.5,4.7,1.5c0.8,0,1.5,0,2-0.1c0.6-0.1,1.1-0.3,1.5-0.5l1.9,1.3l0.8-0.7L104,34.7L104,34.7z
		 M115.8,35.8h-8.9V25.5l1.2,0v9.5h7.7L115.8,35.8L115.8,35.8z"/>
	<path class="st29" d="M19.1,34.1c0.1-0.9,0.1-1,0.8-0.8h0.2c0.6,0,1.4-0.1,1.8-0.3c1-0.4,1.6-1,0.6-0.8c-2.2,0.4-2.4-0.3-2.4-0.3
		c2.3-2.9,3.3-6.6,2.5-7.5c-2.3-2.5-6.2-1.3-6.3-1.3h0c-0.4-0.1-0.9-0.1-1.5-0.1c-1,0-1.7,0.2-2.3,0.6c0,0-7-2.5-6.7,3.1
		c0.1,1.2,2,9,4.3,6.6c0.8-0.8,1.7-1.6,1.7-1.6c0.4,0.2,0.9,0.3,1.4,0.3l0,0c0,0.1,0,0.2,0,0.3c-0.6,0.6-0.4,0.7-1.6,0.9
		s-0.5,0.6,0,0.7c0.6,0.1,1.8,0.3,2.7-0.7l0,0.1c0.2,0.1,0.2,1.1,0.3,1.8c0,0.7,0.1,1.4,0.3,1.7c0.2,0.4,0.4,1.4,1.9,1.1
		C18,37.6,19,37.2,19.1,34.1"/>
	<path class="st30" d="M22.5,32.1c-2.2,0.4-2.4-0.3-2.4-0.3c2.3-2.9,3.3-6.6,2.5-7.5c-2.3-2.5-6.2-1.3-6.3-1.3h0
		c-0.4-0.1-0.9-0.1-1.5-0.1c-1,0-1.7,0.2-2.3,0.6c0,0-7-2.5-6.7,3.1c0.1,1.2,2,9,4.3,6.6c0.8-0.8,1.7-1.6,1.7-1.6
		c0.4,0.2,0.9,0.3,1.4,0.3l0,0c0,0.1,0,0.2,0,0.3c-0.6,0.6-0.4,0.7-1.6,0.9s-0.5,0.6,0,0.7c0.6,0.1,1.8,0.3,2.7-0.7l0,0.1
		c0.2,0.1,0.4,1,0.4,1.8s0,1.3,0.1,1.7c0.2,0.4,0.4,1.4,1.9,1.1c1.3-0.2,2-0.8,2.1-1.9c0.1-0.7,0.2-0.6,0.2-1.3l0.1-0.3
		c0.1-1,0-1.3,0.8-1.1h0.2c0.6,0,1.4-0.1,1.8-0.3C23,32.6,23.5,31.9,22.5,32.1L22.5,32.1z"/>
	<g class="st7">
		<g>
			<path class="st31" d="M14.4,32.7c-0.1,1.8,0,3.7,0.2,4.1c0.2,0.4,0.7,1.3,2.2,1c1.3-0.2,1.8-0.7,2-1.7c0.1-0.7,0.4-2.8,0.5-3.2
				 M12.5,23.4c0,0-7.1-2.4-6.7,3.1c0.1,1.2,2,9,4.3,6.6c0.8-0.8,1.6-1.6,1.6-1.6 M16.3,23c-0.3,0.1,3.9-1.3,6.3,1.3
				c0.8,0.9-0.1,4.6-2.5,7.5"/>
			<path class="st32" d="M20.2,31.8c0,0,0.1,0.6,2.4,0.3c1-0.2,0.4,0.5-0.6,0.8c-0.8,0.3-2.6,0.4-2.6,0
				C19.2,31.8,20.3,32.1,20.2,31.8c-0.1-0.3-0.5-0.5-0.8-1.1c-0.3-0.6-3.6-4.7,0.9-4.1c0.2,0-1.2-3.7-5.5-3.7s-4.1,4.4-4.1,4.4"/>
		</g>
		<g>
			<path class="st33" d="M13.2,32.2c-0.6,0.6-0.4,0.7-1.6,0.9c-1.2,0.2-0.5,0.6,0,0.7c0.6,0.1,1.8,0.3,2.7-0.7c0.3-0.3,0-0.8-0.4-1
				C13.7,32,13.5,31.9,13.2,32.2L13.2,32.2z"/>
			<path class="st31" d="M13.2,32.2c-0.1-0.3,0.1-0.7,0.3-1.2c0.3-0.7,1-1.4,0.4-3.6c-0.4-1.6-3.2-0.3-3.2-0.1c0,0.2,0.1,1.1,0,2.2
				c-0.2,1.4,1,2.5,2.5,2.4"/>
		</g>
	</g>
	<g class="st7">
		<path class="st34" d="M12.5,27.3c0,0.1,0.1,0.3,0.4,0.3c0.3,0,0.4-0.1,0.4-0.2s-0.1-0.1-0.4-0.2C12.7,27.1,12.5,27.2,12.5,27.3z"
			/>
		<path class="st35" d="M19.5,27.1c0,0.1-0.1,0.3-0.4,0.3c-0.3,0-0.4-0.1-0.4-0.2s0.1-0.1,0.4-0.2S19.4,27.1,19.5,27.1L19.5,27.1z"
			/>
	</g>
	<path class="st36" d="M20.3,26.6c0,0.6-0.1,1-0.2,1.6c0,0.9,0.5,2-0.3,3"/>
</g>
<g id="HTML" class="st2">
	<path class="st37" d="M45,17.5l2.7,30.4L60,51.1l12.3-3.2L75,17.5H45z M69.3,24.4l-0.2,2l-0.1,0.9H54.7l0.3,4.1h13.7l-0.1,0.8
		l-0.9,9.8l-0.1,0.6L60,44.5v0l0,0l-7.7-2l-0.5-5.8h3.8l0.3,2.9l4.2,1.1l0-0.1v0l4.2-0.9l0.4-4.6h-13l-0.9-10.4l-0.1-1.1h18.8
		L69.3,24.4L69.3,24.4z M47.8,8.9h1.9v1.9h1.7V8.9h1.9v5.7h-1.9v-1.9h-1.7v1.9h-1.9C47.8,14.6,47.8,8.9,47.8,8.9z M55.9,10.8h-1.7
		V8.9h5.2v1.9h-1.7v3.8h-1.9C55.9,14.6,55.9,10.8,55.9,10.8z M60.3,8.9h2l1.2,2l1.2-2h2v5.7h-1.9v-2.8l-1.3,2h0l-1.3-2v2.8h-1.9
		L60.3,8.9L60.3,8.9z M67.6,8.9h1.9v3.8h2.7v1.9h-4.6C67.6,14.6,67.6,8.9,67.6,8.9z"/>
</g>
<g id="CSS" class="st2">
	<path class="st38" d="M45,17.2l2.7,30.6L60,51.2l12.3-3.4L75,17.2C75,17.2,45,17.2,45,17.2z M68.4,34.3l-0.8,7.4l0,0.6L60,44.5v0
		l0,0l-7.7-2.1l-0.5-5.9h3.8l0.3,3l4.2,1.1l0,0v0l4.2-1.2l0.4-4.9h-8.8l-0.1-0.8l-0.2-1.9l-0.1-1H65l0.3-3.7H50.9l-0.1-0.9l-0.2-2
		L50.6,23h18.8l-0.1,1.1L68.4,34.3 M68.5,13.3L66,10.5h2.4V8.8H63v1.5l2.8,2.6H63v1.7h5.4V13.3z M62,13.3l-2.3-2.8H62V8.8H57v1.5
		l2.6,2.6H57v1.7H62V13.3z M55.9,12.8h-2.7v-2.4h2.7V8.8h-4.7v5.8h4.7V12.8z"/>
</g>
<g id="SASS" class="st2">
	<path class="st39" d="M77.7,31c-1.7,0-3.3,0.4-4.5,1.1c-0.5-0.9-0.9-1.7-1-2.3c-0.1-0.7-0.2-1.1-0.1-2c0.1-0.8,0.6-2,0.6-2.1
		c0-0.1-0.1-0.5-1.1-0.5c-1,0-1.9,0.2-2,0.5c-0.2,0.5-0.3,1-0.4,1.5c-0.2,0.9-2,4.2-3.1,5.9c-0.3-0.7-0.6-1.3-0.7-1.7
		c-0.1-0.7-0.2-1.1-0.1-2c0.1-0.8,0.6-2,0.6-2.1c0-0.1-0.1-0.5-1.1-0.5c-1,0-1.9,0.2-2,0.5c-0.1,0.3-0.2,0.9-0.4,1.5
		c-0.2,0.6-2.6,6-3.3,7.5c-0.3,0.7-0.6,1.3-0.8,1.7c-0.2,0.4,0,0,0,0.1L58,38.2v0c-0.1,0.2-0.3,0.5-0.4,0.5c0,0-0.1-0.7,0-1.6
		c0.4-1.9,1.2-4.8,1.2-4.9c0,0,0.2-0.6-0.6-0.8c-0.7-0.3-1,0.2-1,0.2s-0.1,0.2-0.1,0.2s0.8-3.3-1.5-3.3c-1.4,0-3.4,1.6-4.4,3l-5,2.7
		L46.2,34c-2.8-3-8-5.1-7.7-9.1c0.1-1.5,0.6-5.3,9.9-9.9c7.6-3.8,13.8-2.8,14.8-0.4c1.5,3.3-3.3,9.5-11.2,10.4c-3,0.3-4.6-0.8-5-1.3
		c-0.4-0.5-0.5-0.5-0.6-0.4c-0.3,0.1-0.1,0.5,0,0.8c0.2,0.6,1.2,1.7,2.9,2.3c1.5,0.5,5,0.7,9.3-0.9c4.8-1.9,8.6-7.1,7.5-11.4
		c-1.1-4.4-8.4-5.9-15.3-3.4c-4.1,1.5-8.6,3.8-11.8,6.7c-3.8,3.6-4.4,6.7-4.2,8c0.9,4.6,7.2,7.6,9.8,9.8l-0.4,0.2
		c-1.3,0.6-6.1,3.2-7.3,5.8c-1.4,3,0.2,5.2,1.3,5.5c3.3,0.9,6.6-0.7,8.4-3.4c1.8-2.7,1.6-6.2,0.8-7.8l0-0.1l1-0.6
		c0.6-0.4,1.2-0.7,1.8-1c-0.3,0.8-0.5,1.9-0.7,3.3c-0.1,1.7,0.6,3.9,1.5,4.8c0.4,0.4,0.9,0.4,1.2,0.4c1.1,0,1.6-0.9,2.1-2
		c0.7-1.3,1.3-2.8,1.3-2.8s-0.7,4.1,1.3,4.1c0.7,0,1.5-0.9,1.8-1.4v0c0,0,0,0,0.1-0.1c0.1-0.1,0.1-0.2,0.1-0.2v0
		c0.3-0.5,0.9-1.7,1.9-3.6c1.3-2.5,2.5-5.6,2.5-5.6s0.1,0.8,0.5,2c0.2,0.7,0.7,1.6,1,2.3l-0.5,0.6l0,0c-0.2,0.3-0.5,0.6-0.8,1
		c-1,1.2-2.2,2.5-2.3,2.9c-0.2,0.5-0.1,0.8,0.2,1.1c0.3,0.2,0.7,0.2,1.2,0.2c0.9-0.1,1.5-0.3,1.8-0.4c0.6-0.2,1.1-0.5,1.6-0.8
		c1-0.7,1.6-1.7,1.5-3.1c0-0.8-0.3-1.5-0.6-2.2l0.3-0.4c1.5-2.3,2.7-4.7,2.7-4.7s0.1,0.8,0.5,2c0.2,0.6,0.6,1.3,0.9,2
		c-1.4,1.2-2.4,2.5-2.7,3.4c-0.6,1.7-0.1,2.4,0.7,2.6c0.4,0.1,0.9-0.1,1.3-0.3c0.5-0.2,1.1-0.4,1.7-0.9c1-0.7,1.9-1.7,1.9-3.1
		c0-0.6-0.2-1.2-0.4-1.8c1.2-0.5,2.8-0.8,4.8-0.6c4.3,0.5,5.2,3.2,5,4.4c-0.2,1.1-1.1,1.8-1.4,2c-0.3,0.2-0.4,0.3-0.4,0.4
		c0,0.2,0.2,0.2,0.4,0.2c0.4-0.1,2.3-0.9,2.4-3C84.8,33.9,82.2,30.9,77.7,31L77.7,31z M44.2,42.3c-1.4,1.6-3.5,2.2-4.3,1.7
		c-0.9-0.5-0.6-2.9,1.2-4.5c1.1-1,2.5-2,3.4-2.5l0.9-0.5c0.1,0,0.1-0.1,0.1-0.1c0.1,0,0.1-0.1,0.2-0.1
		C46.3,38.5,45.7,40.6,44.2,42.3L44.2,42.3z M54.7,35.1c-0.5,1.2-1.6,4.4-2.2,4.2c-0.5-0.1-0.9-2.5-0.1-4.9c0.4-1.2,1.2-2.6,1.7-3.1
		c0.8-0.9,1.6-1.2,1.9-0.8C56.2,31,55,34.3,54.7,35.1L54.7,35.1z M63.3,39.3c-0.2,0.1-0.4,0.2-0.5,0.1c-0.1,0,0.1-0.2,0.1-0.2
		s1.1-1.2,1.5-1.7l0.8-1.1v0.1C65.3,37.9,63.9,38.9,63.3,39.3L63.3,39.3z M70,37.7c-0.2-0.1-0.1-0.5,0.4-1.6
		c0.2-0.4,0.7-1.2,1.5-1.9c0.1,0.3,0.2,0.6,0.1,0.8C72,36.8,70.8,37.4,70,37.7L70,37.7z"/>
</g>
<g id="PHP" transform="matrix(1.25,0,0,-1.25,-4.4,394.29875)" class="st2">
	<g id="g3440" class="st7">
		<g>
			<defs>
				<path id="SVGID_1_" d="M26.2,291.5c0-8.9,13.8-16.2,30.7-16.2l0,0c17,0,30.7,7.2,30.7,16.2l0,0c0,8.9-13.8,16.2-30.7,16.2l0,0
					C40,307.6,26.2,300.4,26.2,291.5"/>
			</defs>
			<clipPath id="SVGID_2_">
				<use xlink:href="#SVGID_1_"  style="overflow:visible;"/>
			</clipPath>
			<g id="g3442" class="st40">
				<g id="g3448">
					<g id="g3450">
						
							<radialGradient id="path3462_1_" cx="-714.388" cy="-140.5643" r="0.1111" gradientTransform="matrix(453.8224 0 0 -453.8224 324249.9062 -63489.2812)" gradientUnits="userSpaceOnUse">
							<stop  offset="0" style="stop-color:#AEB2D5"/>
							<stop  offset="0.3" style="stop-color:#AEB2D5"/>
							<stop  offset="0.75" style="stop-color:#484C89"/>
							<stop  offset="1" style="stop-color:#484C89"/>
						</radialGradient>
						<path id="path3462" class="st41" d="M26.2,291.5c0-8.9,13.8-16.2,30.7-16.2l0,0c17,0,30.7,7.2,30.7,16.2l0,0
							c0,8.9-13.8,16.2-30.7,16.2l0,0C40,307.6,26.2,300.4,26.2,291.5"/>
					</g>
				</g>
			</g>
		</g>
	</g>
	<g id="g3464" class="st7">
		<g>
			<defs>
				<rect id="SVGID_3_" x="16.9" y="269" width="80" height="45"/>
			</defs>
			<clipPath id="SVGID_4_">
				<use xlink:href="#SVGID_3_"  style="overflow:visible;"/>
			</clipPath>
			<g id="g3466" class="st42">
				<g id="g3472" transform="translate(288,27.3594)">
					<path id="path3474" class="st43" d="M-231.1,249.1c16.3,0,29.5,6.7,29.5,15c0,8.3-13.2,15-29.5,15s-29.5-6.7-29.5-15
						C-260.6,255.8-247.4,249.1-231.1,249.1"/>
				</g>
			</g>
		</g>
	</g>
	<g id="g3476" class="st7">
		<g>
			<defs>
				<rect id="SVGID_5_" x="16.9" y="269" width="80" height="45"/>
			</defs>
			<clipPath id="SVGID_6_">
				<use xlink:href="#SVGID_5_"  style="overflow:visible;"/>
			</clipPath>
			<g id="g3478" class="st44">
				<g id="g3484" transform="translate(161.7344,145.3066)">
					<path id="path3486" d="M-118.8,144.3c1.3,0,2.3,0.2,3,0.7c0.6,0.5,1.1,1.3,1.3,2.5c0.2,1.1,0.1,1.9-0.2,2.3
						c-0.4,0.4-1.2,0.6-2.4,0.6h-2.1l-1.2-6.1H-118.8z M-125.8,136.8c-0.1,0-0.2,0-0.3,0.1c-0.1,0.1-0.1,0.2-0.1,0.3l3.1,16.2
						c0,0.2,0.2,0.3,0.3,0.3h6.8c2.1,0,3.7-0.6,4.7-1.7c1-1.1,1.3-2.8,0.9-4.8c-0.2-0.8-0.4-1.6-0.8-2.3c-0.4-0.7-0.9-1.3-1.5-1.9
						c-0.7-0.7-1.6-1.2-2.5-1.5c-0.9-0.3-2-0.4-3.4-0.4h-2.7l-0.8-4c0-0.2-0.2-0.3-0.3-0.3H-125.8z"/>
				</g>
				<g id="g3488" transform="translate(159.2236,197.3071)">
					<path id="path3490" class="st45" d="M-116.6,98.1h1.9c1.5,0,2-0.3,2.2-0.5c0.3-0.3,0.3-1,0.2-2c-0.2-1.1-0.6-1.9-1.2-2.3
						c-0.6-0.4-1.5-0.7-2.8-0.7h-1.3L-116.6,98.1z M-113.4,102h-6.8c-0.3,0-0.6-0.2-0.7-0.5l-3.1-16.2c0-0.2,0-0.4,0.1-0.6
						c0.1-0.2,0.3-0.2,0.5-0.2h3.5c0.3,0,0.6,0.2,0.7,0.5l0.7,3.8h2.5c1.4,0,2.6,0.2,3.5,0.5c0.9,0.3,1.8,0.8,2.6,1.6
						c0.6,0.6,1.2,1.2,1.6,2c0.4,0.7,0.7,1.5,0.9,2.4c0.4,2.1,0.1,3.8-1,5.1C-109.5,101.4-111.2,102-113.4,102 M-118.5,92h2.1
						c1.4,0,2.5,0.3,3.2,0.8c0.7,0.5,1.2,1.4,1.4,2.7c0.2,1.2,0.1,2.1-0.3,2.5c-0.4,0.5-1.3,0.7-2.7,0.7h-2.4L-118.5,92
						 M-113.4,101.3c2,0,3.5-0.5,4.5-1.6c0.9-1.1,1.2-2.6,0.8-4.5c-0.2-0.8-0.4-1.5-0.8-2.2c-0.4-0.7-0.8-1.3-1.4-1.8
						c-0.7-0.7-1.5-1.1-2.3-1.4c-0.9-0.3-2-0.4-3.3-0.4h-3l-0.8-4.3h-3.5l3.1,16.2H-113.4"/>
				</g>
				<g id="g3492" transform="translate(311.583,116.3066)">
					<path id="path3494" d="M-252,170.1c-0.1,0-0.2,0-0.3,0.1c-0.1,0.1-0.1,0.2-0.1,0.3l1.4,7.2c0.1,0.7,0.1,1.2-0.1,1.4
						c-0.1,0.1-0.5,0.3-1.5,0.3h-2.5l-1.8-9c0-0.2-0.2-0.3-0.3-0.3h-3.5c-0.1,0-0.2,0-0.3,0.1c-0.1,0.1-0.1,0.2-0.1,0.3l3.1,16.2
						c0,0.2,0.2,0.3,0.3,0.3h3.5c0.1,0,0.2,0,0.3-0.1c0.1-0.1,0.1-0.2,0.1-0.3l-0.8-3.9h2.7c2.1,0,3.5-0.4,4.3-1.1
						c0.8-0.8,1.1-2,0.8-3.6l-1.5-7.5c0-0.2-0.2-0.3-0.3-0.3H-252z"/>
				</g>
				<g id="g3496" transform="translate(293.6611,271.0571)">
					<path id="path3498" class="st45" d="M-236.1,32.5h-3.5c-0.3,0-0.6-0.2-0.7-0.5l-3.1-16.2c0-0.2,0-0.4,0.1-0.6
						c0.1-0.2,0.3-0.2,0.5-0.2h3.5c0.3,0,0.6,0.2,0.7,0.5l1.7,8.7h2.2c1,0,1.3-0.2,1.3-0.2c0.1-0.1,0.1-0.4,0-1.1l-1.4-7.2
						c0-0.2,0-0.4,0.1-0.6c0.1-0.2,0.3-0.2,0.5-0.2h3.6c0.3,0,0.6,0.2,0.7,0.5l1.5,7.5c0.3,1.8,0,3.1-0.9,3.9
						c-0.9,0.8-2.4,1.2-4.5,1.2h-2.3l0.7,3.5c0,0.2,0,0.4-0.1,0.6C-235.7,32.4-235.9,32.5-236.1,32.5 M-236.1,31.9l-0.8-4.3h3.1
						c2,0,3.3-0.3,4.1-1c0.7-0.7,1-1.8,0.7-3.3l-1.5-7.5h-3.6l1.4,7.2c0.2,0.8,0.1,1.4-0.2,1.7c-0.3,0.3-0.9,0.4-1.8,0.4h-2.8
						l-1.8-9.3h-3.5l3.1,16.2H-236.1"/>
				</g>
				<g id="g3500" transform="translate(409.5498,145.3066)">
					<path id="path3502" d="M-339.1,144.3c1.3,0,2.3,0.2,3,0.7c0.6,0.5,1.1,1.3,1.3,2.5c0.2,1.1,0.1,1.9-0.2,2.3
						c-0.4,0.4-1.2,0.6-2.4,0.6h-2.1l-1.2-6.1H-339.1z M-346.1,136.8c-0.1,0-0.2,0-0.3,0.1c-0.1,0.1-0.1,0.2-0.1,0.3l3.1,16.2
						c0,0.2,0.2,0.3,0.3,0.3h6.8c2.1,0,3.7-0.6,4.7-1.7c1-1.1,1.3-2.8,0.9-4.8c-0.2-0.8-0.4-1.6-0.8-2.3c-0.4-0.7-0.9-1.3-1.5-1.9
						c-0.7-0.7-1.6-1.2-2.5-1.5c-0.9-0.3-2-0.4-3.4-0.4h-2.7l-0.8-4c0-0.2-0.2-0.3-0.3-0.3H-346.1z"/>
				</g>
				<g id="g3504" transform="translate(407.0391,197.3071)">
					<path id="path3506" class="st45" d="M-336.9,98.1h1.9c1.5,0,2-0.3,2.2-0.5c0.3-0.3,0.3-1,0.2-2c-0.2-1.1-0.6-1.9-1.2-2.3
						c-0.6-0.4-1.5-0.7-2.8-0.7h-1.3L-336.9,98.1z M-333.7,102h-6.8c-0.3,0-0.6-0.2-0.7-0.5l-3.1-16.2c0-0.2,0-0.4,0.1-0.6
						c0.1-0.2,0.3-0.2,0.5-0.2h3.5c0.3,0,0.6,0.2,0.7,0.5l0.7,3.8h2.5c1.4,0,2.6,0.2,3.5,0.5c0.9,0.3,1.8,0.8,2.6,1.6
						c0.6,0.6,1.2,1.2,1.6,2c0.4,0.7,0.7,1.5,0.9,2.4c0.4,2.1,0.1,3.8-1,5.1C-329.8,101.4-331.4,102-333.7,102 M-338.7,92h2.1
						c1.4,0,2.5,0.3,3.2,0.8c0.7,0.5,1.2,1.4,1.4,2.7c0.2,1.2,0.1,2.1-0.3,2.5c-0.4,0.5-1.3,0.7-2.7,0.7h-2.4L-338.7,92
						 M-333.7,101.3c2,0,3.5-0.5,4.5-1.6c0.9-1.1,1.2-2.6,0.8-4.5c-0.2-0.8-0.4-1.5-0.8-2.2c-0.4-0.7-0.8-1.3-1.4-1.8
						c-0.7-0.7-1.5-1.1-2.3-1.4c-0.9-0.3-2-0.4-3.3-0.4h-3l-0.8-4.3h-3.5l3.1,16.2H-333.7"/>
				</g>
			</g>
		</g>
	</g>
</g>
</svg>
