<svg id="visual" viewBox="0 0 900 600" width="900" height="600" xmlns="http://www.w3.org/2000/svg" xmlns:xlink="http://www.w3.org/1999/xlink" version="1.1"><rect x="0" y="0" width="900" height="600" fill="#1e2d40"></rect><path d="M0 488L16.7 491.3C33.3 494.7 66.7 501.3 100 487.3C133.3 473.3 166.7 438.7 200 439C233.3 439.3 266.7 474.7 300 495.2C333.3 515.7 366.7 521.3 400 519.5C433.3 517.7 466.7 508.3 500 496.3C533.3 484.3 566.7 469.7 600 465.2C633.3 460.7 666.7 466.3 700 460.2C733.3 454 766.7 436 800 429.5C833.3 423 866.7 428 883.3 430.5L900 433L900 601L883.3 601C866.7 601 833.3 601 800 601C766.7 601 733.3 601 700 601C666.7 601 633.3 601 600 601C566.7 601 533.3 601 500 601C466.7 601 433.3 601 400 601C366.7 601 333.3 601 300 601C266.7 601 233.3 601 200 601C166.7 601 133.3 601 100 601C66.7 601 33.3 601 16.7 601L0 601Z" fill="#00ffc3"></path><path d="M0 545L16.7 534C33.3 523 66.7 501 100 492.7C133.3 484.3 166.7 489.7 200 495.5C233.3 501.3 266.7 507.7 300 513.2C333.3 518.7 366.7 523.3 400 521.2C433.3 519 466.7 510 500 510C533.3 510 566.7 519 600 514.5C633.3 510 666.7 492 700 486.2C733.3 480.3 766.7 486.7 800 497.7C833.3 508.7 866.7 524.3 883.3 532.2L900 540L900 601L883.3 601C866.7 601 833.3 601 800 601C766.7 601 733.3 601 700 601C666.7 601 633.3 601 600 601C566.7 601 533.3 601 500 601C466.7 601 433.3 601 400 601C366.7 601 333.3 601 300 601C266.7 601 233.3 601 200 601C166.7 601 133.3 601 100 601C66.7 601 33.3 601 16.7 601L0 601Z" fill="#00e4c4"></path><path d="M0 520L16.7 526.5C33.3 533 66.7 546 100 549.7C133.3 553.3 166.7 547.7 200 541.5C233.3 535.3 266.7 528.7 300 531.5C333.3 534.3 366.7 546.7 400 547.7C433.3 548.7 466.7 538.3 500 532.7C533.3 527 566.7 526 600 524.7C633.3 523.3 666.7 521.7 700 522.8C733.3 524 766.7 528 800 531.5C833.3 535 866.7 538 883.3 539.5L900 541L900 601L883.3 601C866.7 601 833.3 601 800 601C766.7 601 733.3 601 700 601C666.7 601 633.3 601 600 601C566.7 601 533.3 601 500 601C466.7 601 433.3 601 400 601C366.7 601 333.3 601 300 601C266.7 601 233.3 601 200 601C166.7 601 133.3 601 100 601C66.7 601 33.3 601 16.7 601L0 601Z" fill="#05cabe"></path><path d="M0 577L16.7 568.8C33.3 560.7 66.7 544.3 100 535.7C133.3 527 166.7 526 200 532.8C233.3 539.7 266.7 554.3 300 559.3C333.3 564.3 366.7 559.7 400 558.5C433.3 557.3 466.7 559.7 500 556.2C533.3 552.7 566.7 543.3 600 543.3C633.3 543.3 666.7 552.7 700 553.2C733.3 553.7 766.7 545.3 800 547.5C833.3 549.7 866.7 562.3 883.3 568.7L900 575L900 601L883.3 601C866.7 601 833.3 601 800 601C766.7 601 733.3 601 700 601C666.7 601 633.3 601 600 601C566.7 601 533.3 601 500 601C466.7 601 433.3 601 400 601C366.7 601 333.3 601 300 601C266.7 601 233.3 601 200 601C166.7 601 133.3 601 100 601C66.7 601 33.3 601 16.7 601L0 601Z" fill="#25afb1"></path></svg>